# Blender v2.79 (sub 0) OBJ File: 'wall.blend'
# www.blender.org
mtllib wall.mtl
o Cube
v 1.000000 -1.000000 -1.000000
v 1.000000 -1.000000 1.000000
v -1.000000 -1.000000 1.000000
v -1.000000 -1.000000 -1.000000
v 1.000000 1.000000 -0.999999
v 0.999999 1.000000 1.000001
v -1.000000 1.000000 1.000000
v -1.000000 1.000000 -1.000000
vt 0.009434 0.676101
vt 0.323899 0.676101
vt 0.323899 0.990566
vt 0.009434 0.990566
vt 0.990566 0.009434
vt 0.990566 0.323899
vt 0.676101 0.323899
vt 0.676101 0.009434
vt 0.323899 0.323899
vt 0.009434 0.323899
vt 0.009434 0.009434
vt 0.323899 0.009434
vt 0.009434 0.657233
vt 0.009434 0.342767
vt 0.323899 0.342767
vt 0.323899 0.657233
vt 0.657233 0.990566
vt 0.342767 0.990566
vt 0.342767 0.676101
vt 0.657233 0.676101
vt 0.342767 0.009434
vt 0.657233 0.009434
vt 0.657233 0.323899
vt 0.342767 0.323899
vn 0.0000 -1.0000 0.0000
vn 0.0000 1.0000 0.0000
vn 1.0000 0.0000 0.0000
vn -0.0000 -0.0000 1.0000
vn -1.0000 -0.0000 -0.0000
vn 0.0000 0.0000 -1.0000
usemtl MaterialDelCopon
s off
f 1/1/1 2/2/1 3/3/1 4/4/1
f 5/5/2 8/6/2 7/7/2 6/8/2
f 1/9/3 5/10/3 6/11/3 2/12/3
f 2/13/4 6/14/4 7/15/4 3/16/4
f 3/17/5 7/18/5 8/19/5 4/20/5
f 5/21/6 1/22/6 4/23/6 8/24/6
