# Blender v2.79 (sub 0) OBJ File: 'habilidadGladiador.blend'
# www.blender.org
mtllib habilidadGladiador.mtl
o Sphere
v -0.000000 0.000000 -2.995061
v -0.000000 0.584307 -2.937511
v 1.468757 0.584307 -2.543960
v 1.497530 0.000000 -2.593797
v -0.000000 2.937510 -0.584306
v -0.000000 2.995060 0.000003
v 0.292153 2.937510 -0.506024
v -0.000000 -2.995060 -0.000001
v -0.000000 -2.937510 -0.584307
v 0.292153 -2.937510 -0.506025
v -0.000000 -0.584306 -2.937511
v 1.468757 -0.584306 -2.543960
v -0.000000 2.767076 -1.146159
v 0.573081 2.767076 -0.992605
v -0.000000 -1.146158 -2.767077
v 1.383538 -1.146158 -2.396357
v -0.000000 2.490303 -1.663966
v 0.831983 2.490303 -1.441037
v -0.000000 -1.663965 -2.490304
v 1.245151 -1.663965 -2.156666
v -0.000000 2.117828 -2.117828
v 1.058915 2.117828 -1.834091
v -0.000000 -2.117828 -2.117829
v 1.058915 -2.117828 -1.834092
v -0.000000 1.663966 -2.490303
v 1.245151 1.663966 -2.156665
v -0.000000 -2.490303 -1.663966
v 0.831983 -2.490303 -1.441038
v -0.000000 1.146159 -2.767076
v 1.383538 1.146159 -2.396357
v -0.000000 -2.767076 -1.146160
v 0.573081 -2.767076 -0.992603
v 2.396357 1.146159 -1.383538
v 2.543959 0.584307 -1.468754
v 0.992605 -2.767076 -0.573079
v 0.506024 -2.937510 -0.292154
v 2.593800 0.000000 -1.497531
v 0.506024 2.937510 -0.292153
v 2.543959 -0.584306 -1.468754
v 0.992605 2.767076 -0.573081
v 2.396357 -1.146158 -1.383539
v 1.441037 2.490303 -0.831983
v 2.156665 -1.663965 -1.245152
v 1.834094 2.117828 -1.058913
v 1.834094 -2.117828 -1.058913
v 2.156665 1.663966 -1.245152
v 1.441037 -2.490303 -0.831984
v 2.767076 -1.146159 -0.000001
v 2.490303 -1.663966 -0.000001
v 1.663968 2.490303 -0.000000
v 2.117828 2.117828 -0.000000
v 2.117828 -2.117828 -0.000001
v 2.490303 1.663966 -0.000000
v 1.663965 -2.490303 -0.000001
v 2.767076 1.146159 -0.000000
v 1.146162 -2.767076 -0.000001
v 2.937513 0.584306 -0.000000
v 0.584306 -2.937510 -0.000001
v 2.995060 0.000000 -0.000000
v 0.584309 2.937510 -0.000000
v 2.937513 -0.584306 -0.000001
v 1.146162 2.767076 -0.000000
v 0.992605 -2.767076 0.573080
v 0.506024 -2.937510 0.292155
v 2.543959 0.584306 1.468756
v 2.593800 -0.000000 1.497530
v 0.506024 2.937510 0.292156
v 2.543959 -0.584307 1.468756
v 0.992605 2.767076 0.573081
v 2.396357 -1.146159 1.383537
v 1.441037 2.490303 0.831986
v 2.156665 -1.663966 1.245151
v 1.834094 2.117828 1.058915
v 1.834094 -2.117828 1.058915
v 2.156665 1.663965 1.245151
v 1.441037 -2.490303 0.831985
v 2.396357 1.146158 1.383538
v 0.831983 2.490303 1.441037
v 1.058915 2.117828 1.834094
v 1.245151 -1.663966 2.156664
v 1.058915 -2.117828 1.834093
v 1.245151 1.663965 2.156665
v 0.831983 -2.490303 1.441036
v 1.383538 1.146158 2.396359
v 0.573081 -2.767076 0.992604
v 1.468757 0.584306 2.543962
v 0.292153 -2.937510 0.506026
v 1.497530 -0.000000 2.593800
v 0.292153 2.937510 0.506027
v 1.468757 -0.584307 2.543962
v 0.573081 2.767076 0.992605
v 1.383538 -1.146159 2.396359
v -0.000000 0.584306 2.937513
v -0.000000 -0.000000 2.995060
v -0.000000 2.937510 0.584309
v -0.000000 -2.937510 0.584308
v -0.000000 -0.584307 2.937513
v -0.000000 2.767076 1.146162
v -0.000000 -1.146159 2.767076
v -0.000000 2.490303 1.663969
v -0.000000 -1.663966 2.490302
v -0.000000 2.117828 2.117828
v -0.000000 -2.117828 2.117827
v -0.000000 1.663965 2.490303
v -0.000000 -2.490303 1.663968
v -0.000000 1.146158 2.767076
v -0.000000 -2.767076 1.146161
v -1.245152 -1.663966 2.156664
v -1.058916 -2.117828 1.834093
v -1.058916 2.117828 1.834094
v -1.245152 1.663965 2.156665
v -0.831983 -2.490303 1.441036
v -1.383538 1.146158 2.396359
v -0.573081 -2.767076 0.992604
v -1.468757 0.584306 2.543959
v -0.292153 -2.937510 0.506026
v -1.497530 -0.000000 2.593800
v -0.292153 2.937510 0.506027
v -1.468757 -0.584307 2.543962
v -0.573081 2.767076 0.992605
v -1.383538 -1.146159 2.396359
v -0.831983 2.490303 1.441037
v -0.506024 -2.937510 0.292155
v -2.593800 -0.000000 1.497530
v -2.543959 -0.584307 1.468756
v -0.506024 2.937510 0.292156
v -0.992605 2.767076 0.573081
v -2.396357 -1.146159 1.383537
v -1.441037 2.490303 0.831986
v -2.156665 -1.663966 1.245151
v -1.834094 2.117828 1.058915
v -1.834094 -2.117828 1.058915
v -2.156665 1.663965 1.245151
v -1.441037 -2.490303 0.831985
v -2.396357 1.146158 1.383538
v -0.992605 -2.767076 0.573080
v -2.543959 0.584306 1.468756
v -2.117828 -2.117828 -0.000001
v -1.663966 -2.490303 -0.000001
v -2.490303 1.663966 -0.000000
v -2.767076 1.146159 -0.000000
v -1.146162 -2.767076 -0.000001
v -2.937510 0.584306 -0.000000
v -0.584306 -2.937510 -0.000001
v -2.995060 0.000000 -0.000000
v -0.584309 2.937510 -0.000000
v -2.937510 -0.584306 -0.000001
v -1.146162 2.767076 -0.000000
v -2.767076 -1.146159 -0.000001
v -1.663966 2.490303 -0.000000
v -2.490303 -1.663966 -0.000001
v -2.117828 2.117828 -0.000000
v -0.506024 2.937510 -0.292153
v -0.992605 2.767076 -0.573081
v -2.543959 -0.584306 -1.468754
v -2.396357 -1.146158 -1.383539
v -1.441037 2.490303 -0.831983
v -2.156665 -1.663965 -1.245152
v -1.834094 2.117828 -1.058913
v -1.834094 -2.117828 -1.058913
v -2.156665 1.663966 -1.245152
v -1.441037 -2.490303 -0.831984
v -2.396357 1.146159 -1.383538
v -0.992605 -2.767076 -0.573079
v -2.543959 0.584307 -1.468757
v -0.506024 -2.937510 -0.292154
v -2.593797 0.000000 -1.497531
v -1.245152 1.663966 -2.156665
v -1.383538 1.146159 -2.396357
v -0.831983 -2.490303 -1.441038
v -0.573081 -2.767076 -0.992603
v -1.468757 0.584307 -2.543960
v -0.292153 -2.937510 -0.506025
v -1.497530 0.000000 -2.593797
v -0.292153 2.937510 -0.506024
v -1.468757 -0.584306 -2.543960
v -0.573081 2.767076 -0.992602
v -1.383538 -1.146158 -2.396357
v -0.831983 2.490303 -1.441037
v -1.245152 -1.663965 -2.156666
v -1.058913 2.117828 -1.834091
v -1.058913 -2.117828 -1.834092
vt 0.630294 0.165470
vt 0.633430 0.120340
vt 0.734909 0.123387
vt 0.733761 0.168577
vt 0.443250 0.155555
vt 0.475231 0.187457
vt 0.431604 0.175745
vt 0.159039 0.189038
vt 0.115461 0.200556
vt 0.115461 0.177263
vt 0.633430 0.210274
vt 0.734909 0.213321
vt 0.412174 0.124692
vt 0.389328 0.164296
vt 0.642717 0.253030
vt 0.738309 0.255901
vt 0.383196 0.096054
vt 0.350030 0.153550
vt 0.657798 0.292095
vt 0.743829 0.294679
vt 0.357429 0.070740
vt 0.315217 0.143920
vt 0.678095 0.325968
vt 0.751258 0.328165
vt 0.657798 0.035984
vt 0.678095 0.000000
vt 0.751258 0.002197
vt 0.743829 0.038567
vt 0.034384 0.220876
vt 0.000000 0.228898
vt 0.000000 0.144473
vt 0.034384 0.154544
vt 0.642717 0.076618
vt 0.738309 0.079488
vt 0.073370 0.211306
vt 0.073370 0.165616
vt 0.848688 0.079488
vt 0.852088 0.123387
vt 0.096225 0.126030
vt 0.127112 0.157082
vt 0.853236 0.168577
vt 0.431604 0.199048
vt 0.852088 0.213321
vt 0.389328 0.210007
vt 0.848688 0.255901
vt 0.350030 0.219911
vt 0.843168 0.294679
vt 0.315217 0.228382
vt 0.835739 0.328165
vt 0.835739 0.002197
vt 0.843168 0.038567
vt 0.042231 0.071327
vt 0.067564 0.097074
vt 0.944280 0.253030
vt 0.929198 0.292095
vt 0.383195 0.277357
vt 0.357429 0.301495
vt 0.021199 0.049780
vt 0.107211 0.000077
vt 0.115378 0.029058
vt 0.908902 0.000000
vt 0.929198 0.035984
vt 0.125035 0.063863
vt 0.944280 0.076618
vt 0.135812 0.103154
vt 0.953567 0.120340
vt 0.147293 0.145420
vt 0.956703 0.165470
vt 0.443250 0.219220
vt 0.953567 0.210274
vt 0.412174 0.249576
vt 0.181522 0.103119
vt 0.170597 0.145402
vt 0.641627 0.506365
vt 0.638491 0.551495
vt 0.537011 0.548448
vt 0.538159 0.503258
vt 0.463422 0.230856
vt 0.638491 0.461561
vt 0.537011 0.458514
vt 0.451742 0.272400
vt 0.629204 0.418805
vt 0.533612 0.415934
vt 0.440641 0.310493
vt 0.614122 0.379740
vt 0.528092 0.377156
vt 0.430543 0.343670
vt 0.206528 0.000000
vt 0.199840 0.028993
vt 0.614122 0.635851
vt 0.593826 0.671835
vt 0.520663 0.669638
vt 0.528092 0.633268
vt 0.191397 0.063812
vt 0.629204 0.595217
vt 0.533612 0.592347
vt 0.506972 0.310441
vt 0.514967 0.343605
vt 0.520663 0.343670
vt 0.428753 0.377156
vt 0.436182 0.343670
vt 0.436182 0.669638
vt 0.428753 0.633268
vt 0.272986 0.071149
vt 0.248867 0.096934
vt 0.423232 0.592347
vt 0.221109 0.125933
vt 0.419833 0.548448
vt 0.190778 0.157033
vt 0.418685 0.503258
vt 0.486715 0.230838
vt 0.419833 0.458514
vt 0.497433 0.272365
vt 0.423232 0.415934
vt 0.318353 0.551495
vt 0.315217 0.506365
vt 0.506887 0.219171
vt 0.202429 0.177196
vt 0.318353 0.461561
vt 0.537001 0.249479
vt 0.327640 0.418805
vt 0.564418 0.277216
vt 0.342722 0.379740
vt 0.588081 0.301317
vt 0.363019 0.345867
vt 0.363019 0.671835
vt 0.342722 0.635851
vt 0.315217 0.144230
vt 0.282048 0.154353
vt 0.327640 0.595217
vt 0.243964 0.165484
vt 0.689429 0.671835
vt 0.669132 0.635851
vt 0.755162 0.633268
vt 0.762591 0.669638
vt 0.669132 0.379740
vt 0.689429 0.345867
vt 0.762591 0.343670
vt 0.755162 0.377156
vt 0.315217 0.228654
vt 0.282048 0.220685
vt 0.654050 0.418805
vt 0.749642 0.415934
vt 0.243964 0.211174
vt 0.644763 0.461561
vt 0.746243 0.458513
vt 0.202429 0.200489
vt 0.641627 0.506365
vt 0.745095 0.503258
vt 0.518533 0.198981
vt 0.644763 0.551495
vt 0.746243 0.548448
vt 0.559847 0.209875
vt 0.654050 0.595217
vt 0.749642 0.592347
vt 0.597583 0.219720
vt 0.630294 0.228138
vt 0.190777 0.220670
vt 0.864569 0.503258
vt 0.863421 0.548448
vt 0.518533 0.175678
vt 0.559847 0.164164
vt 0.860022 0.592347
vt 0.597583 0.153358
vt 0.854502 0.633268
vt 0.630294 0.143675
vt 0.847072 0.669638
vt 0.847072 0.343670
vt 0.854502 0.377156
vt 0.272986 0.301801
vt 0.248867 0.278155
vt 0.860022 0.415934
vt 0.221109 0.250761
vt 0.863421 0.458513
vt 0.199839 0.344069
vt 0.191396 0.311366
vt 0.940532 0.379740
vt 0.955614 0.418805
vt 0.181522 0.273637
vt 0.964901 0.461561
vt 0.170596 0.232332
vt 0.968037 0.506365
vt 0.506887 0.155506
vt 0.964901 0.551495
vt 0.537002 0.124595
vt 0.955614 0.595217
vt 0.564417 0.095913
vt 0.940532 0.635851
vt 0.588081 0.070562
vt 0.920235 0.671835
vt 0.920235 0.345867
vt 0.486715 0.143870
vt 0.497433 0.101770
vt 0.629204 0.748453
vt 0.638491 0.792175
vt 0.537011 0.795222
vt 0.533612 0.751323
vt 0.506972 0.062777
vt 0.614122 0.707819
vt 0.528092 0.710402
vt 0.514968 0.028387
vt 0.593825 0.671835
vt 0.520663 0.674032
vt 0.614122 0.963930
vt 0.593825 0.997803
vt 0.520663 1.000000
vt 0.528092 0.966514
vt 0.115377 0.344135
vt 0.125035 0.311417
vt 0.629204 0.924865
vt 0.533612 0.927736
vt 0.135812 0.273672
vt 0.638491 0.882109
vt 0.537011 0.885157
vt 0.147293 0.232350
vt 0.641627 0.837305
vt 0.538159 0.840412
vt 0.428752 0.966514
vt 0.423232 0.927736
vt 0.067564 0.278296
vt 0.096225 0.250858
vt 0.419833 0.885157
vt 0.127112 0.220719
vt 0.418685 0.840412
vt 0.463422 0.143888
vt 0.419833 0.795222
vt 0.451743 0.101806
vt 0.423232 0.751323
vt 0.440641 0.062828
vt 0.428752 0.710402
vt 0.430543 0.028453
vt 0.436182 0.674032
vt 0.436182 1.000000
vt 0.042231 0.301979
vt 0.318353 0.792175
vt 0.327640 0.748453
vt 0.342722 0.707819
vt 0.363019 0.671835
vt 0.421838 0.000000
vt 0.335866 0.049725
vt 0.342722 0.963930
vt 0.327640 0.924865
vt 0.318353 0.882109
vt 0.315217 0.837305
vn 0.2577 0.0947 -0.9616
vn 0.0263 0.9948 -0.0980
vn 0.0263 -0.9948 -0.0980
vn 0.2577 -0.0947 -0.9616
vn 0.0775 0.9541 -0.2894
vn 0.2484 -0.2812 -0.9270
vn 0.1253 0.8750 -0.4677
vn 0.2300 -0.4588 -0.8583
vn 0.1676 0.7621 -0.6254
vn 0.2028 -0.6212 -0.7569
vn 0.2028 0.6212 -0.7569
vn 0.1676 -0.7621 -0.6254
vn 0.2300 0.4588 -0.8583
vn 0.1253 -0.8750 -0.4677
vn 0.2484 0.2812 -0.9270
vn 0.0775 -0.9541 -0.2894
vn 0.6786 0.2812 -0.6786
vn 0.2119 -0.9541 -0.2119
vn 0.7039 0.0947 -0.7039
vn 0.0717 0.9948 -0.0717
vn 0.0717 -0.9948 -0.0717
vn 0.7039 -0.0947 -0.7039
vn 0.2119 0.9541 -0.2119
vn 0.6786 -0.2812 -0.6786
vn 0.3424 0.8750 -0.3424
vn 0.6283 -0.4588 -0.6283
vn 0.4578 0.7621 -0.4578
vn 0.5541 -0.6212 -0.5541
vn 0.5541 0.6212 -0.5541
vn 0.4578 -0.7621 -0.4578
vn 0.6283 0.4588 -0.6283
vn 0.3424 -0.8750 -0.3424
vn 0.8583 -0.4588 -0.2300
vn 0.6254 0.7621 -0.1676
vn 0.7569 -0.6212 -0.2028
vn 0.7569 0.6212 -0.2028
vn 0.6254 -0.7621 -0.1676
vn 0.8583 0.4588 -0.2300
vn 0.4677 -0.8750 -0.1253
vn 0.9270 0.2812 -0.2484
vn 0.2894 -0.9541 -0.0775
vn 0.9616 0.0947 -0.2577
vn 0.0980 0.9948 -0.0263
vn 0.0980 -0.9948 -0.0263
vn 0.9616 -0.0947 -0.2577
vn 0.2894 0.9541 -0.0775
vn 0.9270 -0.2812 -0.2484
vn 0.4677 0.8750 -0.1253
vn 0.2894 -0.9541 0.0775
vn 0.9616 0.0947 0.2577
vn 0.0980 0.9948 0.0263
vn 0.0980 -0.9948 0.0263
vn 0.9616 -0.0947 0.2577
vn 0.2894 0.9541 0.0775
vn 0.9270 -0.2812 0.2484
vn 0.4677 0.8750 0.1253
vn 0.8583 -0.4588 0.2300
vn 0.6254 0.7621 0.1676
vn 0.7569 -0.6212 0.2028
vn 0.7569 0.6212 0.2028
vn 0.6254 -0.7621 0.1676
vn 0.8583 0.4588 0.2300
vn 0.4677 -0.8750 0.1253
vn 0.9270 0.2812 0.2484
vn 0.4578 0.7621 0.4578
vn 0.5541 -0.6212 0.5541
vn 0.5541 0.6212 0.5541
vn 0.4578 -0.7621 0.4578
vn 0.6283 0.4588 0.6283
vn 0.3424 -0.8750 0.3424
vn 0.6786 0.2812 0.6786
vn 0.2119 -0.9541 0.2119
vn 0.7039 0.0947 0.7039
vn 0.0717 0.9948 0.0717
vn 0.0717 -0.9948 0.0717
vn 0.7039 -0.0947 0.7039
vn 0.2119 0.9541 0.2119
vn 0.6786 -0.2812 0.6786
vn 0.3424 0.8750 0.3424
vn 0.6283 -0.4588 0.6283
vn 0.2577 0.0947 0.9616
vn 0.0263 0.9948 0.0980
vn 0.0263 -0.9948 0.0980
vn 0.2577 -0.0947 0.9616
vn 0.0775 0.9541 0.2894
vn 0.2484 -0.2812 0.9270
vn 0.1253 0.8750 0.4677
vn 0.2300 -0.4588 0.8583
vn 0.1676 0.7621 0.6254
vn 0.2028 -0.6212 0.7569
vn 0.2028 0.6212 0.7569
vn 0.1676 -0.7621 0.6254
vn 0.2300 0.4588 0.8583
vn 0.1253 -0.8750 0.4677
vn 0.2484 0.2812 0.9270
vn 0.0775 -0.9541 0.2894
vn -0.2028 -0.6212 0.7569
vn -0.2028 0.6212 0.7569
vn -0.1676 -0.7621 0.6254
vn -0.2300 0.4588 0.8583
vn -0.1253 -0.8750 0.4677
vn -0.2484 0.2812 0.9270
vn -0.0775 -0.9541 0.2894
vn -0.2577 0.0947 0.9616
vn -0.0263 0.9948 0.0980
vn -0.0263 -0.9948 0.0980
vn -0.2577 -0.0947 0.9616
vn -0.0775 0.9541 0.2894
vn -0.2484 -0.2812 0.9270
vn -0.1253 0.8750 0.4677
vn -0.2300 -0.4588 0.8583
vn -0.1676 0.7621 0.6254
vn -0.0717 -0.9948 0.0717
vn -0.7039 -0.0947 0.7039
vn -0.2119 0.9541 0.2119
vn -0.6786 -0.2812 0.6786
vn -0.3424 0.8750 0.3424
vn -0.6283 -0.4588 0.6283
vn -0.4578 0.7621 0.4578
vn -0.5541 -0.6212 0.5541
vn -0.5541 0.6212 0.5541
vn -0.4578 -0.7621 0.4578
vn -0.6283 0.4588 0.6283
vn -0.3424 -0.8750 0.3424
vn -0.6786 0.2812 0.6786
vn -0.2119 -0.9541 0.2119
vn -0.7039 0.0947 0.7039
vn -0.0717 0.9948 0.0717
vn -0.6254 -0.7621 0.1676
vn -0.8583 0.4588 0.2300
vn -0.4677 -0.8750 0.1253
vn -0.9270 0.2812 0.2484
vn -0.2894 -0.9541 0.0775
vn -0.9616 0.0947 0.2577
vn -0.0980 0.9948 0.0263
vn -0.0980 -0.9948 0.0263
vn -0.9616 -0.0947 0.2577
vn -0.2894 0.9541 0.0775
vn -0.9270 -0.2812 0.2484
vn -0.4677 0.8750 0.1253
vn -0.8583 -0.4588 0.2300
vn -0.6254 0.7621 0.1676
vn -0.7569 -0.6212 0.2028
vn -0.7569 0.6212 0.2028
vn -0.2894 0.9541 -0.0775
vn -0.9270 -0.2812 -0.2484
vn -0.4677 0.8750 -0.1253
vn -0.8583 -0.4588 -0.2300
vn -0.6254 0.7621 -0.1676
vn -0.7569 -0.6212 -0.2028
vn -0.7569 0.6212 -0.2028
vn -0.6254 -0.7621 -0.1676
vn -0.8583 0.4588 -0.2300
vn -0.4677 -0.8750 -0.1253
vn -0.9270 0.2812 -0.2484
vn -0.2894 -0.9541 -0.0775
vn -0.9616 0.0947 -0.2577
vn -0.0980 0.9948 -0.0263
vn -0.0980 -0.9948 -0.0263
vn -0.9616 -0.0947 -0.2577
vn -0.6283 0.4588 -0.6283
vn -0.3424 -0.8750 -0.3424
vn -0.6786 0.2812 -0.6786
vn -0.2119 -0.9541 -0.2119
vn -0.7039 0.0947 -0.7039
vn -0.0717 0.9948 -0.0717
vn -0.0717 -0.9948 -0.0717
vn -0.7039 -0.0947 -0.7039
vn -0.2119 0.9541 -0.2119
vn -0.6786 -0.2812 -0.6786
vn -0.3424 0.8750 -0.3424
vn -0.6283 -0.4588 -0.6283
vn -0.4578 0.7621 -0.4578
vn -0.5541 -0.6212 -0.5541
vn -0.5541 0.6212 -0.5541
vn -0.4578 -0.7621 -0.4578
vn -0.2484 -0.2812 -0.9270
vn -0.1253 0.8750 -0.4677
vn -0.2300 -0.4588 -0.8583
vn -0.1676 0.7621 -0.6254
vn -0.2028 -0.6212 -0.7569
vn -0.2028 0.6212 -0.7569
vn -0.1676 -0.7621 -0.6254
vn -0.2300 0.4588 -0.8583
vn -0.1253 -0.8750 -0.4677
vn -0.2484 0.2812 -0.9270
vn -0.0775 -0.9541 -0.2894
vn -0.2577 0.0947 -0.9616
vn -0.0263 0.9948 -0.0980
vn -0.0263 -0.9948 -0.0980
vn -0.2577 -0.0947 -0.9616
vn -0.0775 0.9541 -0.2894
usemtl None
s 1
f 1/1/1 2/2/1 3/3/1 4/4/1
f 5/5/2 6/6/2 7/7/2
f 8/8/3 9/9/3 10/10/3
f 11/11/4 1/1/4 4/4/4 12/12/4
f 13/13/5 5/5/5 7/7/5 14/14/5
f 15/15/6 11/11/6 12/12/6 16/16/6
f 17/17/7 13/13/7 14/14/7 18/18/7
f 19/19/8 15/15/8 16/16/8 20/20/8
f 21/21/9 17/17/9 18/18/9 22/22/9
f 23/23/10 19/19/10 20/20/10 24/24/10
f 25/25/11 21/26/11 22/27/11 26/28/11
f 27/29/12 23/30/12 24/31/12 28/32/12
f 29/33/13 25/25/13 26/28/13 30/34/13
f 31/35/14 27/29/14 28/32/14 32/36/14
f 2/2/15 29/33/15 30/34/15 3/3/15
f 9/9/16 31/35/16 32/36/16 10/10/16
f 3/3/17 30/34/17 33/37/17 34/38/17
f 10/10/18 32/36/18 35/39/18 36/40/18
f 4/4/19 3/3/19 34/38/19 37/41/19
f 7/7/20 6/6/20 38/42/20
f 8/8/21 10/10/21 36/40/21
f 12/12/22 4/4/22 37/41/22 39/43/22
f 14/14/23 7/7/23 38/42/23 40/44/23
f 16/16/24 12/12/24 39/43/24 41/45/24
f 18/18/25 14/14/25 40/44/25 42/46/25
f 20/20/26 16/16/26 41/45/26 43/47/26
f 22/22/27 18/18/27 42/46/27 44/48/27
f 24/24/28 20/20/28 43/47/28 45/49/28
f 26/28/29 22/27/29 44/50/29 46/51/29
f 28/32/30 24/31/30 45/52/30 47/53/30
f 30/34/31 26/28/31 46/51/31 33/37/31
f 32/36/32 28/32/32 47/53/32 35/39/32
f 43/47/33 41/45/33 48/54/33 49/55/33
f 44/48/34 42/46/34 50/56/34 51/57/34
f 45/52/35 43/58/35 49/59/35 52/60/35
f 46/51/36 44/50/36 51/61/36 53/62/36
f 47/53/37 45/52/37 52/60/37 54/63/37
f 33/37/38 46/51/38 53/62/38 55/64/38
f 35/39/39 47/53/39 54/63/39 56/65/39
f 34/38/40 33/37/40 55/64/40 57/66/40
f 36/40/41 35/39/41 56/65/41 58/67/41
f 37/41/42 34/38/42 57/66/42 59/68/42
f 38/42/43 6/6/43 60/69/43
f 8/8/44 36/40/44 58/67/44
f 39/43/45 37/41/45 59/68/45 61/70/45
f 40/44/46 38/42/46 60/69/46 62/71/46
f 41/45/47 39/43/47 61/70/47 48/54/47
f 42/46/48 40/44/48 62/71/48 50/56/48
f 58/67/49 56/65/49 63/72/49 64/73/49
f 59/74/50 57/75/50 65/76/50 66/77/50
f 60/69/51 6/6/51 67/78/51
f 8/8/52 58/67/52 64/73/52
f 61/79/53 59/74/53 66/77/53 68/80/53
f 62/71/54 60/69/54 67/78/54 69/81/54
f 48/82/55 61/79/55 68/80/55 70/83/55
f 50/56/56 62/71/56 69/81/56 71/84/56
f 49/85/57 48/82/57 70/83/57 72/86/57
f 51/57/58 50/56/58 71/84/58 73/87/58
f 52/60/59 49/59/59 72/88/59 74/89/59
f 53/90/60 51/91/60 73/92/60 75/93/60
f 54/63/61 52/60/61 74/89/61 76/94/61
f 55/95/62 53/90/62 75/93/62 77/96/62
f 56/65/63 54/63/63 76/94/63 63/72/63
f 57/75/64 55/95/64 77/96/64 65/76/64
f 73/87/65 71/84/65 78/97/65 79/98/65
f 74/99/66 72/86/66 80/100/66 81/101/66
f 75/93/67 73/92/67 79/102/67 82/103/67
f 76/94/68 74/89/68 81/104/68 83/105/68
f 77/96/69 75/93/69 82/103/69 84/106/69
f 63/72/70 76/94/70 83/105/70 85/107/70
f 65/76/71 77/96/71 84/106/71 86/108/71
f 64/73/72 63/72/72 85/107/72 87/109/72
f 66/77/73 65/76/73 86/108/73 88/110/73
f 67/78/74 6/6/74 89/111/74
f 8/8/75 64/73/75 87/109/75
f 68/80/76 66/77/76 88/110/76 90/112/76
f 69/81/77 67/78/77 89/111/77 91/113/77
f 70/83/78 68/80/78 90/112/78 92/114/78
f 71/84/79 69/81/79 91/113/79 78/97/79
f 72/86/80 70/83/80 92/114/80 80/100/80
f 88/110/81 86/108/81 93/115/81 94/116/81
f 89/111/82 6/6/82 95/117/82
f 8/8/83 87/109/83 96/118/83
f 90/112/84 88/110/84 94/116/84 97/119/84
f 91/113/85 89/111/85 95/117/85 98/120/85
f 92/114/86 90/112/86 97/119/86 99/121/86
f 78/97/87 91/113/87 98/120/87 100/122/87
f 80/100/88 92/114/88 99/121/88 101/123/88
f 79/98/89 78/97/89 100/122/89 102/124/89
f 81/101/90 80/100/90 101/123/90 103/125/90
f 82/103/91 79/102/91 102/126/91 104/127/91
f 83/105/92 81/104/92 103/128/92 105/129/92
f 84/106/93 82/103/93 104/127/93 106/130/93
f 85/107/94 83/105/94 105/129/94 107/131/94
f 86/108/95 84/106/95 106/130/95 93/115/95
f 87/109/96 85/107/96 107/131/96 96/118/96
f 103/132/97 101/133/97 108/134/97 109/135/97
f 104/136/98 102/137/98 110/138/98 111/139/98
f 105/129/99 103/128/99 109/140/99 112/141/99
f 106/142/100 104/136/100 111/139/100 113/143/100
f 107/131/101 105/129/101 112/141/101 114/144/101
f 93/145/102 106/142/102 113/143/102 115/146/102
f 96/118/103 107/131/103 114/144/103 116/147/103
f 94/148/104 93/145/104 115/146/104 117/149/104
f 95/117/105 6/6/105 118/150/105
f 8/8/106 96/118/106 116/147/106
f 97/151/107 94/148/107 117/149/107 119/152/107
f 98/120/108 95/117/108 118/150/108 120/153/108
f 99/154/109 97/151/109 119/152/109 121/155/109
f 100/122/110 98/120/110 120/153/110 122/156/110
f 101/133/111 99/154/111 121/155/111 108/134/111
f 102/124/112 100/122/112 122/156/112 110/157/112
f 8/8/113 116/147/113 123/158/113
f 119/152/114 117/149/114 124/159/114 125/160/114
f 120/153/115 118/150/115 126/161/115 127/162/115
f 121/155/116 119/152/116 125/160/116 128/163/116
f 122/156/117 120/153/117 127/162/117 129/164/117
f 108/134/118 121/155/118 128/163/118 130/165/118
f 110/157/119 122/156/119 129/164/119 131/166/119
f 109/135/120 108/134/120 130/165/120 132/167/120
f 111/139/121 110/138/121 131/168/121 133/169/121
f 112/141/122 109/140/122 132/170/122 134/171/122
f 113/143/123 111/139/123 133/169/123 135/172/123
f 114/144/124 112/141/124 134/171/124 136/173/124
f 115/146/125 113/143/125 135/172/125 137/174/125
f 116/147/126 114/144/126 136/173/126 123/158/126
f 117/149/127 115/146/127 137/174/127 124/159/127
f 118/150/128 6/6/128 126/161/128
f 134/171/129 132/170/129 138/175/129 139/176/129
f 135/172/130 133/169/130 140/177/130 141/178/130
f 136/173/131 134/171/131 139/176/131 142/179/131
f 137/174/132 135/172/132 141/178/132 143/180/132
f 123/158/133 136/173/133 142/179/133 144/181/133
f 124/159/134 137/174/134 143/180/134 145/182/134
f 126/161/135 6/6/135 146/183/135
f 8/8/136 123/158/136 144/181/136
f 125/160/137 124/159/137 145/182/137 147/184/137
f 127/162/138 126/161/138 146/183/138 148/185/138
f 128/163/139 125/160/139 147/184/139 149/186/139
f 129/164/140 127/162/140 148/185/140 150/187/140
f 130/165/141 128/163/141 149/186/141 151/188/141
f 131/166/142 129/164/142 150/187/142 152/189/142
f 132/167/143 130/165/143 151/188/143 138/190/143
f 133/169/144 131/168/144 152/191/144 140/177/144
f 148/185/145 146/183/145 153/192/145 154/193/145
f 149/194/146 147/195/146 155/196/146 156/197/146
f 150/187/147 148/185/147 154/193/147 157/198/147
f 151/199/148 149/194/148 156/197/148 158/200/148
f 152/189/149 150/187/149 157/198/149 159/201/149
f 138/202/150 151/199/150 158/200/150 160/203/150
f 140/204/151 152/205/151 159/206/151 161/207/151
f 139/176/152 138/175/152 160/208/152 162/209/152
f 141/210/153 140/204/153 161/207/153 163/211/153
f 142/179/154 139/176/154 162/209/154 164/212/154
f 143/213/155 141/210/155 163/211/155 165/214/155
f 144/181/156 142/179/156 164/212/156 166/215/156
f 145/216/157 143/213/157 165/214/157 167/217/157
f 146/183/158 6/6/158 153/192/158
f 8/8/159 144/181/159 166/215/159
f 147/195/160 145/216/160 167/217/160 155/196/160
f 163/211/161 161/207/161 168/218/161 169/219/161
f 164/212/162 162/209/162 170/220/162 171/221/162
f 165/214/163 163/211/163 169/219/163 172/222/163
f 166/215/164 164/212/164 171/221/164 173/223/164
f 167/217/165 165/214/165 172/222/165 174/224/165
f 153/192/166 6/6/166 175/225/166
f 8/8/167 166/215/167 173/223/167
f 155/196/168 167/217/168 174/224/168 176/226/168
f 154/193/169 153/192/169 175/225/169 177/227/169
f 156/197/170 155/196/170 176/226/170 178/228/170
f 157/198/171 154/193/171 177/227/171 179/229/171
f 158/200/172 156/197/172 178/228/172 180/230/172
f 159/201/173 157/198/173 179/229/173 181/231/173
f 160/203/174 158/200/174 180/230/174 182/232/174
f 161/207/175 159/206/175 181/233/175 168/218/175
f 162/209/176 160/208/176 182/234/176 170/220/176
f 178/228/177 176/226/177 11/235/177 15/236/177
f 179/229/178 177/227/178 13/13/178 17/17/178
f 180/230/179 178/228/179 15/236/179 19/237/179
f 181/231/180 179/229/180 17/17/180 21/21/180
f 182/232/181 180/230/181 19/237/181 23/238/181
f 168/239/182 181/231/182 21/21/182 25/240/182
f 170/220/183 182/234/183 23/30/183 27/29/183
f 169/219/184 168/218/184 25/241/184 29/242/184
f 171/221/185 170/220/185 27/29/185 31/35/185
f 172/222/186 169/219/186 29/242/186 2/243/186
f 173/223/187 171/221/187 31/35/187 9/9/187
f 174/224/188 172/222/188 2/243/188 1/244/188
f 175/225/189 6/6/189 5/5/189
f 8/8/190 173/223/190 9/9/190
f 176/226/191 174/224/191 1/244/191 11/235/191
f 177/227/192 175/225/192 5/5/192 13/13/192
