# Blender v2.79 (sub 0) OBJ File: 'rueda.blend'
# www.blender.org
mtllib rueda.mtl
o Cylinder
v -1.000000 1.000000 0.000000
v -0.267650 1.000000 0.000000
v -1.000000 0.980785 -0.195090
v -0.267650 0.980785 -0.195090
v -1.000000 0.923880 -0.382683
v -0.267650 0.923879 -0.382683
v -1.000000 0.831470 -0.555570
v -0.267650 0.831470 -0.555570
v -1.000000 0.707107 -0.707107
v -0.267650 0.707107 -0.707107
v -1.000000 0.555570 -0.831470
v -0.267650 0.555570 -0.831470
v -1.000000 0.382683 -0.923879
v -0.267650 0.382683 -0.923880
v -1.000000 0.195090 -0.980785
v -0.267650 0.195090 -0.980785
v -1.000000 0.000000 -1.000000
v -0.267650 0.000000 -1.000000
v -1.000000 -0.195090 -0.980785
v -0.267650 -0.195090 -0.980785
v -1.000000 -0.382683 -0.923880
v -0.267650 -0.382683 -0.923880
v -1.000000 -0.555570 -0.831470
v -0.267650 -0.555570 -0.831470
v -1.000000 -0.707107 -0.707107
v -0.267650 -0.707107 -0.707107
v -1.000000 -0.831470 -0.555570
v -0.267650 -0.831470 -0.555570
v -1.000000 -0.923880 -0.382683
v -0.267650 -0.923880 -0.382683
v -1.000000 -0.980785 -0.195090
v -0.267650 -0.980785 -0.195090
v -1.000000 -1.000000 0.000000
v -0.267650 -1.000000 0.000000
v -1.000000 -0.980785 0.195091
v -0.267650 -0.980785 0.195091
v -1.000000 -0.923879 0.382684
v -0.267650 -0.923879 0.382684
v -1.000000 -0.831469 0.555571
v -0.267650 -0.831469 0.555571
v -1.000000 -0.707106 0.707107
v -0.267650 -0.707106 0.707107
v -1.000000 -0.555570 0.831470
v -0.267650 -0.555570 0.831470
v -1.000000 -0.382683 0.923880
v -0.267650 -0.382683 0.923880
v -1.000000 -0.195089 0.980785
v -0.267650 -0.195090 0.980785
v -1.000000 0.000001 1.000000
v -0.267650 0.000001 1.000000
v -1.000000 0.195091 0.980785
v -0.267650 0.195091 0.980785
v -1.000000 0.382684 0.923879
v -0.267650 0.382684 0.923879
v -1.000000 0.555571 0.831469
v -0.267650 0.555571 0.831469
v -1.000000 0.707108 0.707106
v -0.267650 0.707108 0.707106
v -1.000000 0.831470 0.555569
v -0.267650 0.831470 0.555569
v -1.000000 0.923880 0.382682
v -0.267650 0.923880 0.382682
v -1.000000 0.980786 0.195089
v -0.267650 0.980785 0.195089
v -0.267650 0.778445 -0.154842
v -0.267650 0.793695 -0.000000
v -0.267650 0.733279 -0.303734
v -0.267650 0.659934 -0.440953
v -0.267650 0.561227 -0.561227
v -0.267650 0.440953 -0.659934
v -0.267650 0.303734 -0.733279
v -0.267650 0.154842 -0.778445
v -0.267650 0.000000 -0.793695
v -0.267650 -0.154842 -0.778445
v -0.267650 -0.303734 -0.733279
v -0.267650 -0.440953 -0.659934
v -0.267650 -0.561227 -0.561227
v -0.267650 -0.659934 -0.440953
v -0.267650 -0.733279 -0.303734
v -0.267650 -0.778445 -0.154842
v -0.267650 -0.793695 0.000000
v -0.267650 -0.778445 0.154843
v -0.267650 -0.733279 0.303734
v -0.267650 -0.659933 0.440954
v -0.267650 -0.561227 0.561228
v -0.267650 -0.440953 0.659934
v -0.267650 -0.303733 0.733279
v -0.267650 -0.154842 0.778445
v -0.267650 0.000001 0.793695
v -0.267650 0.154843 0.778444
v -0.267650 0.303735 0.733278
v -0.267650 0.440954 0.659933
v -0.267650 0.561228 0.561227
v -0.267650 0.659934 0.440953
v -0.267650 0.733279 0.303733
v -0.267650 0.778445 0.154841
v -0.542333 0.778445 -0.154842
v -0.542332 0.793695 0.000000
v -0.542333 0.733279 -0.303734
v -0.542333 0.659934 -0.440953
v -0.542333 0.561227 -0.561227
v -0.542333 0.440953 -0.659934
v -0.542333 0.303734 -0.733279
v -0.542333 0.154842 -0.778445
v -0.542333 0.000000 -0.793695
v -0.542333 -0.154842 -0.778445
v -0.542333 -0.303734 -0.733279
v -0.542333 -0.440953 -0.659934
v -0.542333 -0.561227 -0.561227
v -0.542333 -0.659934 -0.440953
v -0.542333 -0.733279 -0.303734
v -0.542333 -0.778445 -0.154842
v -0.542333 -0.793695 0.000000
v -0.542333 -0.778445 0.154843
v -0.542333 -0.733279 0.303734
v -0.542333 -0.659933 0.440954
v -0.542333 -0.561227 0.561228
v -0.542333 -0.440953 0.659934
v -0.542333 -0.303733 0.733279
v -0.542333 -0.154842 0.778445
v -0.542332 0.000001 0.793695
v -0.542332 0.154843 0.778444
v -0.542332 0.303735 0.733278
v -0.542332 0.440954 0.659933
v -0.542332 0.561228 0.561227
v -0.542332 0.659934 0.440953
v -0.542332 0.733279 0.303733
v -0.542332 0.778445 0.154841
v -0.542333 0.105414 -0.020968
v -0.542333 0.107479 -0.000000
v -0.542333 0.099297 -0.041130
v -0.542333 0.089365 -0.059712
v -0.542333 0.075999 -0.075999
v -0.542333 0.059712 -0.089365
v -0.542333 0.041130 -0.099297
v -0.542333 0.020968 -0.105413
v -0.542333 0.000000 -0.107479
v -0.542333 -0.020968 -0.105413
v -0.542333 -0.041130 -0.099297
v -0.542333 -0.059712 -0.089365
v -0.542333 -0.075999 -0.075999
v -0.542333 -0.089365 -0.059712
v -0.542333 -0.099297 -0.041130
v -0.542333 -0.105413 -0.020968
v -0.542333 -0.107478 -0.000000
v -0.542333 -0.105413 0.020968
v -0.542333 -0.099297 0.041130
v -0.542333 -0.089365 0.059712
v -0.542333 -0.075998 0.075999
v -0.542333 -0.059712 0.089365
v -0.542333 -0.041130 0.099297
v -0.542333 -0.020968 0.105413
v -0.542333 0.000000 0.107478
v -0.542333 0.020968 0.105413
v -0.542333 0.041131 0.099297
v -0.542333 0.059712 0.089365
v -0.542333 0.075999 0.075999
v -0.542333 0.089365 0.059712
v -0.542333 0.099297 0.041130
v -0.542333 0.105414 0.020968
v -0.333169 0.105414 -0.020968
v -0.333169 0.107479 -0.000000
v -0.333169 0.099297 -0.041130
v -0.333169 0.089365 -0.059712
v -0.333169 0.075999 -0.075999
v -0.333169 0.059712 -0.089365
v -0.333169 0.041130 -0.099297
v -0.333169 0.020968 -0.105413
v -0.333169 0.000000 -0.107479
v -0.333169 -0.020968 -0.105413
v -0.333169 -0.041130 -0.099297
v -0.333169 -0.059712 -0.089365
v -0.333169 -0.075999 -0.075999
v -0.333169 -0.089365 -0.059712
v -0.333169 -0.099297 -0.041130
v -0.333169 -0.105413 -0.020968
v -0.333169 -0.107478 -0.000000
v -0.333169 -0.105413 0.020968
v -0.333169 -0.099297 0.041130
v -0.333169 -0.089365 0.059712
v -0.333169 -0.075998 0.075999
v -0.333169 -0.059712 0.089365
v -0.333169 -0.041130 0.099297
v -0.333169 -0.020968 0.105413
v -0.333169 0.000000 0.107478
v -0.333169 0.020968 0.105413
v -0.333169 0.041131 0.099297
v -0.333169 0.059712 0.089365
v -0.333169 0.075999 0.075999
v -0.333169 0.089365 0.059712
v -0.333169 0.099297 0.041130
v -0.333169 0.105414 0.020968
vt 1.000000 0.497217
vt 0.825107 0.497217
vt 0.825107 0.452040
vt 1.000000 0.452040
vt 0.825107 0.409485
vt 1.000000 0.409485
vt 0.825107 0.371187
vt 1.000000 0.371187
vt 0.650214 0.701879
vt 0.825107 0.701879
vt 0.825107 0.740177
vt 0.650214 0.740177
vt 0.825107 0.782732
vt 0.650214 0.782732
vt 0.825107 0.827909
vt 0.650214 0.827909
vt 0.825107 0.873970
vt 0.650214 0.873970
vt 0.825107 0.919146
vt 0.650214 0.919146
vt 0.825107 0.961701
vt 0.650214 0.961701
vt 0.825107 1.000000
vt 0.650214 1.000000
vt 0.650214 0.371187
vt 0.825107 0.371187
vt 0.825107 0.409485
vt 0.650214 0.409485
vt 0.825107 0.452040
vt 0.650214 0.452040
vt 0.825107 0.497217
vt 0.650214 0.497217
vt 0.825107 0.543278
vt 0.650214 0.543278
vt 0.825107 0.588454
vt 0.650214 0.588454
vt 0.825107 0.631010
vt 0.650214 0.631010
vt 0.825107 0.669308
vt 0.650214 0.669308
vt 0.825107 0.701879
vt 0.650214 0.701879
vt 0.650214 0.734449
vt 0.475321 0.734449
vt 0.475321 0.701879
vt 0.650214 0.701878
vt 0.475321 0.663580
vt 0.650214 0.663580
vt 0.475321 0.621025
vt 0.650214 0.621025
vt 0.475321 0.575848
vt 0.650214 0.575848
vt 0.475321 0.529787
vt 0.650214 0.529787
vt 0.475321 0.484611
vt 0.650214 0.484611
vt 0.475321 0.442056
vt 0.650214 0.442056
vt 0.475321 0.403757
vt 0.650214 0.403757
vt 0.475321 0.371187
vt 0.650214 0.371187
vt 1.000000 0.701878
vt 0.825107 0.701878
vt 0.825107 0.669308
vt 1.000000 0.669308
vt 0.825107 0.631009
vt 1.000000 0.631009
vt 0.825107 0.588454
vt 1.000000 0.588454
vt 0.027048 0.812265
vt 0.009133 0.769710
vt 0.056279 0.755639
vt 0.070499 0.789415
vt 0.825107 0.543278
vt 1.000000 0.543278
vt 0.000000 0.256865
vt 0.000000 0.210804
vt 0.009133 0.165628
vt 0.027048 0.123072
vt 0.053057 0.084774
vt 0.086161 0.052203
vt 0.125086 0.026613
vt 0.168337 0.008986
vt 0.214253 0.000000
vt 0.261068 0.000000
vt 0.306984 0.008986
vt 0.350235 0.026613
vt 0.389160 0.052203
vt 0.422264 0.084774
vt 0.448273 0.123072
vt 0.466188 0.165627
vt 0.475321 0.210804
vt 0.475321 0.256865
vt 0.466188 0.302041
vt 0.448273 0.344597
vt 0.422264 0.382895
vt 0.389160 0.415466
vt 0.350235 0.441056
vt 0.306984 0.458683
vt 0.261068 0.467669
vt 0.214253 0.467669
vt 0.168337 0.458683
vt 0.125086 0.441056
vt 0.086161 0.415465
vt 0.053057 0.382895
vt 0.027048 0.344596
vt 0.009133 0.302041
vt 0.918178 0.232071
vt 0.918178 0.262469
vt 0.852581 0.262469
vt 0.852581 0.232071
vt 0.389160 0.883134
vt 0.350235 0.908725
vt 0.327010 0.865974
vt 0.357905 0.845663
vt 0.389160 0.519872
vt 0.422264 0.552443
vt 0.384179 0.583194
vt 0.357905 0.557344
vt 0.027048 0.590741
vt 0.053057 0.552443
vt 0.091142 0.583195
vt 0.070499 0.613592
vt 0.214253 0.935338
vt 0.168337 0.926352
vt 0.182639 0.879964
vt 0.219082 0.887097
vt 0.475321 0.678473
vt 0.475321 0.724534
vt 0.426291 0.719783
vt 0.426291 0.683224
vt 0.168337 0.476655
vt 0.214253 0.467669
vt 0.219082 0.515910
vt 0.182639 0.523042
vt 0.053057 0.850564
vt 0.091142 0.819812
vt 0.422264 0.850564
vt 0.384179 0.819812
vt 0.350235 0.494282
vt 0.327010 0.537033
vt 0.009133 0.633296
vt 0.056279 0.647368
vt 0.261068 0.935338
vt 0.256239 0.887097
vt 0.466188 0.633296
vt 0.419042 0.647368
vt 0.125086 0.494282
vt 0.148311 0.537033
vt 0.086161 0.883134
vt 0.117416 0.845663
vt 0.448273 0.812266
vt 0.404822 0.789415
vt 0.306984 0.476655
vt 0.292682 0.523042
vt 0.000000 0.678473
vt 0.049030 0.683224
vt 0.306983 0.926352
vt 0.292682 0.879964
vt 0.448273 0.590741
vt 0.404822 0.613592
vt 0.086161 0.519872
vt 0.117416 0.557344
vt 0.125086 0.908725
vt 0.148311 0.865974
vt 0.466188 0.769710
vt 0.419042 0.755639
vt 0.261068 0.467669
vt 0.256239 0.515910
vt 0.000000 0.724534
vt 0.049030 0.719783
vt 0.810470 0.067285
vt 0.831113 0.097682
vt 0.686588 0.173689
vt 0.683792 0.169572
vt 0.890704 0.874323
vt 0.890704 0.838467
vt 0.956301 0.838467
vt 0.956301 0.874323
vt 0.825107 0.933950
vt 0.825107 0.900174
vt 0.890704 0.900174
vt 0.890704 0.933950
vt 0.918178 0.198295
vt 0.852581 0.198295
vt 0.890704 0.908099
vt 0.956301 0.908099
vt 0.825107 0.964347
vt 0.890704 0.964347
vt 0.918178 0.162439
vt 0.852581 0.162439
vt 0.918178 0.030397
vt 0.918178 0.000000
vt 0.983775 0.000000
vt 0.983775 0.030397
vt 0.918178 0.125880
vt 0.852581 0.125880
vt 0.918178 0.064173
vt 0.983775 0.064173
vt 0.918178 0.090024
vt 0.852581 0.090024
vt 0.918178 0.100030
vt 0.983775 0.100030
vt 0.918178 0.056248
vt 0.852581 0.056248
vt 0.918178 0.136588
vt 0.983775 0.136588
vt 0.918178 0.025851
vt 0.852581 0.025851
vt 0.918178 0.172444
vt 0.983775 0.172444
vt 0.918178 0.000000
vt 0.852581 0.000000
vt 0.918178 0.206220
vt 0.983775 0.206220
vt 0.825107 0.727729
vt 0.825107 0.701879
vt 0.890704 0.701879
vt 0.890704 0.727729
vt 0.918178 0.236618
vt 0.983775 0.236618
vt 0.825107 0.758127
vt 0.890704 0.758127
vt 0.890704 0.732276
vt 0.890704 0.701879
vt 0.956301 0.701879
vt 0.956301 0.732276
vt 0.825107 0.791903
vt 0.890704 0.791903
vt 0.890704 0.938496
vt 0.956301 0.938496
vt 0.890704 0.766052
vt 0.956301 0.766052
vt 0.825107 0.827759
vt 0.890704 0.827759
vt 0.890704 0.964347
vt 0.956301 0.964347
vt 0.890704 0.801908
vt 0.956301 0.801908
vt 0.825107 0.864318
vt 0.890704 0.864318
vt 0.918178 0.288319
vt 0.852581 0.288319
vt 0.558974 0.832741
vt 0.554790 0.832741
vt 0.554790 0.783595
vt 0.558974 0.783595
vt 0.482570 0.239729
vt 0.475321 0.203873
vt 0.638408 0.188069
vt 0.639390 0.192924
vt 0.784196 0.041434
vt 0.680234 0.166072
vt 0.496790 0.273505
vt 0.641315 0.197498
vt 0.753301 0.021123
vt 0.676051 0.163321
vt 0.517433 0.303902
vt 0.644110 0.201614
vt 0.718973 0.007132
vt 0.671402 0.161427
vt 0.543707 0.329753
vt 0.647668 0.205115
vt 0.682530 0.000000
vt 0.666467 0.160461
vt 0.574602 0.350064
vt 0.651852 0.207865
vt 0.645373 0.000000
vt 0.661435 0.160461
vt 0.608930 0.364054
vt 0.656501 0.209760
vt 0.608930 0.007132
vt 0.656501 0.161427
vt 0.645373 0.371187
vt 0.661436 0.210725
vt 0.574601 0.021123
vt 0.651852 0.163321
vt 0.831113 0.273505
vt 0.810470 0.303902
vt 0.683792 0.201614
vt 0.686588 0.197498
vt 0.682530 0.371187
vt 0.666467 0.210725
vt 0.543707 0.041434
vt 0.647668 0.166072
vt 0.845332 0.239729
vt 0.688513 0.192924
vt 0.718973 0.364054
vt 0.671402 0.209760
vt 0.517433 0.067285
vt 0.644110 0.169573
vt 0.852581 0.203873
vt 0.689495 0.188069
vt 0.753301 0.350064
vt 0.676051 0.207865
vt 0.496789 0.097682
vt 0.641315 0.173689
vt 0.852581 0.167314
vt 0.689495 0.183118
vt 0.784196 0.329753
vt 0.680234 0.205115
vt 0.482570 0.131458
vt 0.639390 0.178263
vt 0.845332 0.131458
vt 0.688513 0.178263
vt 0.475321 0.167314
vt 0.638408 0.183118
vt 0.478228 0.771486
vt 0.476303 0.766912
vt 0.475321 0.762056
vt 0.475321 0.757106
vt 0.476303 0.752250
vt 0.478228 0.747676
vt 0.481024 0.743560
vt 0.484582 0.740060
vt 0.488765 0.737309
vt 0.493414 0.735415
vt 0.498349 0.734449
vt 0.503380 0.734449
vt 0.508315 0.735415
vt 0.512964 0.737309
vt 0.517148 0.740060
vt 0.520705 0.743560
vt 0.523501 0.747676
vt 0.525426 0.752250
vt 0.526408 0.757106
vt 0.526408 0.762056
vt 0.525426 0.766912
vt 0.523501 0.771486
vt 0.520705 0.775602
vt 0.517148 0.779102
vt 0.512964 0.781853
vt 0.508315 0.783747
vt 0.503380 0.784713
vt 0.498349 0.784713
vt 0.493414 0.783747
vt 0.488765 0.781853
vt 0.484582 0.779102
vt 0.481024 0.775602
vt 0.538798 0.734449
vt 0.543733 0.734449
vt 0.543733 0.783595
vt 0.538798 0.783595
vt 0.598030 0.734449
vt 0.602213 0.734449
vt 0.602213 0.783595
vt 0.598030 0.783595
vt 0.534149 0.734449
vt 0.534149 0.783595
vt 0.593381 0.734449
vt 0.593381 0.783595
vt 0.529966 0.734449
vt 0.529966 0.783595
vt 0.588446 0.734449
vt 0.588446 0.783595
vt 0.526408 0.734449
vt 0.526408 0.783595
vt 0.583415 0.734449
vt 0.583415 0.783595
vt 0.611046 0.734449
vt 0.615981 0.734449
vt 0.615981 0.783595
vt 0.611046 0.783595
vt 0.634779 0.734449
vt 0.638337 0.734449
vt 0.638337 0.783595
vt 0.634779 0.783595
vt 0.578480 0.734449
vt 0.578480 0.783595
vt 0.606397 0.734449
vt 0.606397 0.783595
vt 0.630596 0.734449
vt 0.630596 0.783595
vt 0.573831 0.734449
vt 0.573831 0.783595
vt 0.602213 0.734449
vt 0.602213 0.783595
vt 0.625947 0.734449
vt 0.625947 0.783595
vt 0.569647 0.734449
vt 0.569648 0.783595
vt 0.530592 0.832741
vt 0.526408 0.832741
vt 0.526408 0.783595
vt 0.530592 0.783595
vt 0.621012 0.734449
vt 0.621012 0.783595
vt 0.566090 0.734449
vt 0.566090 0.783595
vt 0.535240 0.832741
vt 0.535240 0.783595
vt 0.562532 0.734449
vt 0.562532 0.783595
vt 0.540175 0.832741
vt 0.540175 0.783595
vt 0.558348 0.734449
vt 0.558348 0.783595
vt 0.545207 0.832741
vt 0.545207 0.783595
vt 0.553700 0.734449
vt 0.553700 0.783595
vt 0.550142 0.832741
vt 0.550142 0.783595
vt 0.548765 0.734449
vt 0.548765 0.783595
vn 0.0000 0.9952 -0.0980
vn 0.0000 0.9569 -0.2903
vn 0.0000 0.8819 -0.4714
vn 0.0000 0.7730 -0.6344
vn 0.0000 0.6344 -0.7730
vn -0.0000 0.4714 -0.8819
vn -0.0000 0.2903 -0.9569
vn -0.0000 0.0980 -0.9952
vn -0.0000 -0.0980 -0.9952
vn -0.0000 -0.2903 -0.9569
vn -0.0000 -0.4714 -0.8819
vn -0.0000 -0.6344 -0.7730
vn -0.0000 -0.7730 -0.6344
vn -0.0000 -0.8819 -0.4714
vn -0.0000 -0.9569 -0.2903
vn -0.0000 -0.9952 -0.0980
vn -0.0000 -0.9952 0.0980
vn -0.0000 -0.9569 0.2903
vn -0.0000 -0.8819 0.4714
vn -0.0000 -0.7730 0.6344
vn -0.0000 -0.6344 0.7730
vn 0.0000 -0.4714 0.8819
vn 0.0000 -0.2903 0.9569
vn 0.0000 -0.0980 0.9952
vn 0.0000 0.0980 0.9952
vn 0.0000 0.2903 0.9569
vn 0.0000 0.4714 0.8819
vn 0.0000 0.6344 0.7730
vn 0.0000 0.7730 0.6344
vn 0.0000 0.8819 0.4714
vn 1.0000 0.0000 0.0000
vn 0.0000 0.9569 0.2903
vn 0.0000 0.9952 0.0980
vn -1.0000 0.0000 0.0000
usemtl None
s off
f 1/1/1 2/2/1 4/3/1 3/4/1
f 3/4/2 4/3/2 6/5/2 5/6/2
f 5/6/3 6/5/3 8/7/3 7/8/3
f 7/9/4 8/10/4 10/11/4 9/12/4
f 9/12/5 10/11/5 12/13/5 11/14/5
f 11/14/6 12/13/6 14/15/6 13/16/6
f 13/16/7 14/15/7 16/17/7 15/18/7
f 15/18/8 16/17/8 18/19/8 17/20/8
f 17/20/9 18/19/9 20/21/9 19/22/9
f 19/22/10 20/21/10 22/23/10 21/24/10
f 21/25/11 22/26/11 24/27/11 23/28/11
f 23/28/12 24/27/12 26/29/12 25/30/12
f 25/30/13 26/29/13 28/31/13 27/32/13
f 27/32/14 28/31/14 30/33/14 29/34/14
f 29/34/15 30/33/15 32/35/15 31/36/15
f 31/36/16 32/35/16 34/37/16 33/38/16
f 33/38/17 34/37/17 36/39/17 35/40/17
f 35/40/18 36/39/18 38/41/18 37/42/18
f 37/43/19 38/44/19 40/45/19 39/46/19
f 39/46/20 40/45/20 42/47/20 41/48/20
f 41/48/21 42/47/21 44/49/21 43/50/21
f 43/50/22 44/49/22 46/51/22 45/52/22
f 45/52/23 46/51/23 48/53/23 47/54/23
f 47/54/24 48/53/24 50/55/24 49/56/24
f 49/56/25 50/55/25 52/57/25 51/58/25
f 51/58/26 52/57/26 54/59/26 53/60/26
f 53/60/27 54/59/27 56/61/27 55/62/27
f 55/63/28 56/64/28 58/65/28 57/66/28
f 57/66/29 58/65/29 60/67/29 59/68/29
f 59/68/30 60/67/30 62/69/30 61/70/30
f 6/71/31 4/72/31 65/73/31 67/74/31
f 61/70/32 62/69/32 64/75/32 63/76/32
f 63/76/33 64/75/33 2/2/33 1/1/33
f 1/77/34 3/78/34 5/79/34 7/80/34 9/81/34 11/82/34 13/83/34 15/84/34 17/85/34 19/86/34 21/87/34 23/88/34 25/89/34 27/90/34 29/91/34 31/92/34 33/93/34 35/94/34 37/95/34 39/96/34 41/97/34 43/98/34 45/99/34 47/100/34 49/101/34 51/102/34 53/103/34 55/104/34 57/105/34 59/106/34 61/107/34 63/108/34
f 69/109/20 68/110/20 100/111/20 101/112/20
f 24/113/31 22/114/31 75/115/31 76/116/31
f 42/117/31 40/118/31 84/119/31 85/120/31
f 60/121/31 58/122/31 93/123/31 94/124/31
f 16/125/31 14/126/31 71/127/31 72/128/31
f 34/129/31 32/130/31 80/131/31 81/132/31
f 52/133/31 50/134/31 89/135/31 90/136/31
f 8/137/31 6/71/31 67/74/31 68/138/31
f 26/139/31 24/113/31 76/116/31 77/140/31
f 44/141/31 42/117/31 85/120/31 86/142/31
f 62/143/31 60/121/31 94/124/31 95/144/31
f 18/145/31 16/125/31 72/128/31 73/146/31
f 36/147/31 34/129/31 81/132/31 82/148/31
f 54/149/31 52/133/31 90/136/31 91/150/31
f 10/151/31 8/137/31 68/138/31 69/152/31
f 28/153/31 26/139/31 77/140/31 78/154/31
f 46/155/31 44/141/31 86/142/31 87/156/31
f 64/157/31 62/143/31 95/144/31 96/158/31
f 20/159/31 18/145/31 73/146/31 74/160/31
f 38/161/31 36/147/31 82/148/31 83/162/31
f 56/163/31 54/149/31 91/150/31 92/164/31
f 12/165/31 10/151/31 69/152/31 70/166/31
f 30/167/31 28/153/31 78/154/31 79/168/31
f 48/169/31 46/155/31 87/156/31 88/170/31
f 4/72/31 2/171/31 66/172/31 65/73/31
f 2/171/31 64/157/31 96/158/31 66/172/31
f 22/114/31 20/159/31 74/160/31 75/115/31
f 40/118/31 38/161/31 83/162/31 84/119/31
f 58/122/31 56/163/31 92/164/31 93/123/31
f 14/126/31 12/165/31 70/166/31 71/127/31
f 32/130/31 30/167/31 79/168/31 80/131/31
f 50/134/31 48/169/31 88/170/31 89/135/31
f 104/173/31 103/174/31 135/175/31 136/176/31
f 96/177/15 95/178/15 127/179/15 128/180/15
f 83/181/2 82/182/2 114/183/2 115/184/2
f 70/185/21 69/109/21 101/112/21 102/186/21
f 66/187/16 96/177/16 128/180/16 98/188/16
f 84/189/3 83/181/3 115/184/3 116/190/3
f 71/191/22 70/185/22 102/186/22 103/192/22
f 85/193/4 84/194/4 116/195/4 117/196/4
f 72/197/23 71/191/23 103/192/23 104/198/23
f 86/199/5 85/193/5 117/196/5 118/200/5
f 73/201/24 72/197/24 104/198/24 105/202/24
f 87/203/6 86/199/6 118/200/6 119/204/6
f 74/205/25 73/201/25 105/202/25 106/206/25
f 88/207/7 87/203/7 119/204/7 120/208/7
f 75/209/26 74/205/26 106/206/26 107/210/26
f 89/211/8 88/207/8 120/208/8 121/212/8
f 76/213/27 75/209/27 107/210/27 108/214/27
f 90/215/9 89/211/9 121/212/9 122/216/9
f 77/217/28 76/218/28 108/219/28 109/220/28
f 91/221/10 90/215/10 122/216/10 123/222/10
f 78/223/29 77/217/29 109/220/29 110/224/29
f 92/225/11 91/226/11 123/227/11 124/228/11
f 79/229/30 78/223/30 110/224/30 111/230/30
f 65/231/17 66/187/17 98/188/17 97/232/17
f 93/233/12 92/225/12 124/228/12 125/234/12
f 80/235/32 79/229/32 111/230/32 112/236/32
f 67/237/18 65/231/18 97/232/18 99/238/18
f 94/239/13 93/233/13 125/234/13 126/240/13
f 81/241/33 80/235/33 112/236/33 113/242/33
f 68/110/19 67/243/19 99/244/19 100/111/19
f 95/178/14 94/239/14 126/240/14 127/179/14
f 82/182/1 81/241/1 113/242/1 114/183/1
f 139/245/10 138/246/10 170/247/10 171/248/10
f 118/249/31 117/250/31 149/251/31 150/252/31
f 105/253/31 104/173/31 136/176/31 137/254/31
f 119/255/31 118/249/31 150/252/31 151/256/31
f 106/257/31 105/253/31 137/254/31 138/258/31
f 120/259/31 119/255/31 151/256/31 152/260/31
f 107/261/31 106/257/31 138/258/31 139/262/31
f 121/263/31 120/259/31 152/260/31 153/264/31
f 108/265/31 107/261/31 139/262/31 140/266/31
f 122/267/31 121/263/31 153/264/31 154/268/31
f 109/269/31 108/265/31 140/266/31 141/270/31
f 123/271/31 122/267/31 154/268/31 155/272/31
f 110/273/31 109/269/31 141/270/31 142/274/31
f 124/275/31 123/271/31 155/272/31 156/276/31
f 111/277/31 110/273/31 142/274/31 143/278/31
f 97/279/31 98/280/31 130/281/31 129/282/31
f 125/283/31 124/275/31 156/276/31 157/284/31
f 112/285/31 111/277/31 143/278/31 144/286/31
f 99/287/31 97/279/31 129/282/31 131/288/31
f 126/289/31 125/283/31 157/284/31 158/290/31
f 113/291/31 112/285/31 144/286/31 145/292/31
f 100/293/31 99/287/31 131/288/31 132/294/31
f 127/295/31 126/289/31 158/290/31 159/296/31
f 114/297/31 113/291/31 145/292/31 146/298/31
f 101/299/31 100/293/31 132/294/31 133/300/31
f 128/301/31 127/295/31 159/296/31 160/302/31
f 115/303/31 114/297/31 146/298/31 147/304/31
f 102/305/31 101/299/31 133/300/31 134/306/31
f 98/280/31 128/301/31 160/302/31 130/281/31
f 116/307/31 115/303/31 147/304/31 148/308/31
f 103/174/31 102/305/31 134/306/31 135/175/31
f 117/250/31 116/307/31 148/308/31 149/251/31
f 161/309/31 162/310/31 192/311/31 191/312/31 190/313/31 189/314/31 188/315/31 187/316/31 186/317/31 185/318/31 184/319/31 183/320/31 182/321/31 181/322/31 180/323/31 179/324/31 178/325/31 177/326/31 176/327/31 175/328/31 174/329/31 173/330/31 172/331/31 171/332/31 170/333/31 169/334/31 168/335/31 167/336/31 166/337/31 165/338/31 164/339/31 163/340/31
f 153/341/24 152/342/24 184/343/24 185/344/24
f 140/345/11 139/346/11 171/347/11 172/348/11
f 154/349/25 153/341/25 185/344/25 186/350/25
f 141/351/12 140/345/12 172/348/12 173/352/12
f 155/353/26 154/349/26 186/350/26 187/354/26
f 142/355/13 141/351/13 173/352/13 174/356/13
f 156/357/27 155/353/27 187/354/27 188/358/27
f 143/359/14 142/355/14 174/356/14 175/360/14
f 129/361/1 130/362/1 162/363/1 161/364/1
f 157/365/28 156/366/28 188/367/28 189/368/28
f 144/369/15 143/359/15 175/360/15 176/370/15
f 131/371/2 129/361/2 161/364/2 163/372/2
f 158/373/29 157/365/29 189/368/29 190/374/29
f 145/375/16 144/369/16 176/370/16 177/376/16
f 132/377/3 131/371/3 163/372/3 164/378/3
f 159/379/30 158/373/30 190/374/30 191/380/30
f 146/381/17 145/375/17 177/376/17 178/382/17
f 133/383/4 132/384/4 164/385/4 165/386/4
f 160/387/32 159/379/32 191/380/32 192/388/32
f 147/389/18 146/381/18 178/382/18 179/390/18
f 134/391/5 133/383/5 165/386/5 166/392/5
f 130/362/33 160/387/33 192/388/33 162/363/33
f 148/393/19 147/389/19 179/390/19 180/394/19
f 135/395/6 134/391/6 166/392/6 167/396/6
f 149/397/20 148/393/20 180/394/20 181/398/20
f 136/399/7 135/395/7 167/396/7 168/400/7
f 150/401/21 149/397/21 181/398/21 182/402/21
f 137/403/8 136/399/8 168/400/8 169/404/8
f 151/405/22 150/401/22 182/402/22 183/406/22
f 138/246/9 137/403/9 169/404/9 170/247/9
f 152/342/23 151/405/23 183/406/23 184/343/23
