# Blender v2.79 (sub 0) OBJ File: 'mountain.blend'
# www.blender.org
mtllib mountain.mtl
o montana
v -19.356295 2.945882 4.098443
v -19.336409 -0.763002 4.098479
v -19.893927 -0.763002 6.123409
v -19.784891 2.260818 6.123615
v -35.201149 2.260823 -21.640419
v -28.724775 7.475325 -22.730724
v -21.493820 7.475325 -27.352598
v -27.319803 2.262925 -26.203905
v -9.711355 5.559950 6.145553
v -2.410959 8.400847 -1.090346
v -5.464101 9.646977 -1.485228
v -11.482998 9.646976 3.247782
v -27.686577 -0.763002 5.933360
v -25.668011 -0.763002 6.116342
v -25.550976 2.260818 5.808599
v -27.863689 4.961477 6.691718
v -28.065796 -0.762999 -9.366345
v -34.552345 -0.763002 5.354487
v -34.931564 -0.763000 -8.563481
v -10.170336 -0.763002 6.145552
v -8.004038 -0.763002 5.789560
v -7.467058 0.400456 3.865641
v -6.572615 13.089170 -1.404168
v -12.603677 13.089170 2.784080
v -24.072367 3.161453 6.784710
v -21.828621 3.007181 6.909581
v -17.767763 2.111888 6.131433
v -16.726553 2.831507 5.875827
v -14.318176 2.859318 6.119486
v -12.036013 2.260818 6.383713
v -32.105331 7.401262 -9.366344
v -24.981571 9.646976 3.221125
v -29.650368 13.089172 -10.468820
v -23.664972 13.089170 2.765603
v -12.624399 20.023056 1.894940
v -23.480541 20.023056 0.418407
v 3.005507 0.014769 -9.213483
v 3.005507 -0.762999 -9.569475
v -0.739172 -0.762999 -13.488556
v -0.739172 0.121286 -13.488556
v -26.691525 20.023058 -10.677575
v -11.871725 -0.763002 6.137361
v -17.704418 0.674443 6.131453
v -17.641075 -0.763002 6.131471
v -18.233753 -0.763002 4.134313
v -18.253639 3.023296 4.134275
v -19.899414 -0.762963 7.636163
v -19.790379 0.568887 7.636369
v -12.700314 2.260819 1.362622
v -12.536025 -0.763001 1.362931
v -15.722455 2.260819 -3.645628
v -15.558167 -0.763000 -3.645319
v -22.046453 2.260820 -3.683610
v -21.882166 -0.763000 -3.683301
v -25.861317 2.260819 1.572607
v -25.697029 -0.763001 1.572918
v -25.991718 2.260818 4.128512
v -25.827431 -0.763002 4.128822
v -16.575878 3.296396 2.362828
v -15.667688 3.230340 1.718562
v -17.250145 3.058181 0.010126
v -17.809904 3.281685 1.580693
v -21.472092 2.610087 0.010126
v -21.089552 2.659033 1.580693
v -22.483307 2.659033 3.207754
v -23.192776 2.610086 2.701755
v -22.459326 2.826157 4.028674
v -24.133873 2.610086 4.185950
v -19.262747 -0.762963 8.866446
v -19.131725 -0.463251 8.866652
v -17.717106 1.235354 6.887810
v -18.728415 1.324658 7.640278
v -18.053938 0.358821 7.644186
v -17.680462 0.236186 6.664130
v -17.656506 -0.202071 7.644204
v -17.643818 -0.762982 6.887847
v -17.646563 -0.762963 7.644224
v -18.231962 -0.762963 8.874507
v -18.370125 -0.472156 8.874469
v -34.389313 2.260818 6.112844
v -35.003799 2.206107 -8.845708
v -30.585869 -0.762999 -13.641418
v -33.974312 2.260821 -13.641418
v -35.201149 -0.762998 -19.702065
v -31.178459 7.445676 -13.224912
v -4.404335 5.335788 -16.626907
v -2.970201 8.754428 -9.213482
v -0.739172 5.579174 -9.213482
v -1.307175 4.985552 -13.740281
v -9.992785 -0.763000 -9.213483
v -1.200846 -0.762998 -16.309742
v 0.718172 5.225595 -2.559591
v -1.200846 0.121287 -16.309742
v -6.248107 -0.762999 -9.569475
v -3.530672 -0.763001 1.952981
v 2.169327 -0.763001 -1.889958
v -35.474045 0.696432 -9.237499
v -35.474045 -0.762999 -9.504667
v -35.487854 0.696432 -12.697729
v -35.510529 -0.762999 -12.678541
v -5.308344 13.089172 -10.081657
v -8.653762 20.023058 -9.980617
v -3.403844 0.226360 1.804794
v -2.415560 -0.762997 -25.186886
v -2.415560 0.121288 -25.186886
v -9.901192 20.234316 -16.281803
v -13.274666 20.023060 -20.047865
v -14.845760 29.335205 -16.849554
v -12.714624 29.468666 -14.470407
v -19.386131 20.023060 -20.692171
v -18.706577 29.335205 -17.256584
v -6.302364 5.335789 -24.984539
v -12.770750 14.616169 -25.545137
v -12.219543 5.335790 -29.606413
v -14.512934 11.039006 -26.678082
v -20.570229 15.867810 -22.986387
v -19.448589 11.620478 -25.432079
v -28.988911 13.148892 -16.438858
v -26.314615 20.036263 -15.538139
v -11.926582 29.335205 -10.489739
v -14.832485 38.131191 -13.119146
v -14.388460 38.055992 -10.876225
v -5.938994 11.039004 -16.702501
v 2.296154 0.226360 -2.038145
v -23.083530 29.343548 -14.000609
v -21.293152 29.335203 -3.920330
v -23.321636 29.335205 -10.930031
v -14.434966 29.335203 -2.987555
v -9.992785 -0.762996 -33.272953
v -28.065796 -0.762996 -28.532700
v -10.950098 2.007621 -29.883688
v -19.666086 38.055992 -7.174670
v -20.809042 38.055992 -11.124309
v -16.033281 38.055996 -14.459685
v -15.801817 38.055992 -6.649094
v -20.674881 38.060696 -12.854439
v -18.208672 38.055996 -14.689029
vt 0.732025 0.663030
vt 0.749826 0.670382
vt 0.726855 0.677212
vt 0.731818 0.663121
vt 0.373905 0.528338
vt 0.345407 0.504801
vt 0.353866 0.472579
vt 0.367739 0.493757
vt 0.513856 0.490274
vt 0.614424 0.448190
vt 0.614659 0.482743
vt 0.547716 0.528723
vt 0.035494 0.671574
vt 0.000252 0.635472
vt 0.052864 0.581025
vt 0.105066 0.587241
vt 0.277629 0.820600
vt 0.147724 0.665660
vt 0.316420 0.692248
vt 0.105979 0.370733
vt 0.025955 0.294454
vt 0.080224 0.277684
vt 0.105533 0.296641
vt 0.623897 0.519924
vt 0.562988 0.562289
vt 0.033567 0.557749
vt 0.031178 0.523567
vt 0.019589 0.490339
vt 0.018924 0.459577
vt 0.031309 0.444331
vt 0.042394 0.409213
vt 0.054688 0.375254
vt 0.279010 0.994432
vt 0.113178 0.994432
vt 0.141604 0.935965
vt 0.293268 0.937372
vt 0.612231 0.190168
vt 0.513856 0.146406
vt 0.541711 0.084322
vt 0.638362 0.124967
vt 0.272579 0.260325
vt 0.274762 0.252824
vt 0.352877 0.243669
vt 0.349060 0.260803
vt 0.046037 0.837001
vt 0.078367 0.821105
vt 0.154323 0.899548
vt 0.753817 0.198664
vt 0.748420 0.124513
vt 0.513856 0.214305
vt 0.582093 0.199168
vt 0.532787 0.278100
vt 0.000252 0.326363
vt 0.731856 0.662817
vt 0.731949 0.662260
vt 0.725118 0.652827
vt 0.750151 0.657998
vt 0.732008 0.662958
vt 0.730926 0.663223
vt 0.731331 0.663174
vt 0.998300 0.860328
vt 0.999748 0.889898
vt 0.950410 0.888692
vt 0.951343 0.859199
vt 0.893413 0.888492
vt 0.894346 0.858999
vt 0.831806 0.889888
vt 0.832739 0.860395
vt 0.768521 0.889898
vt 0.769454 0.860405
vt 0.743594 0.889176
vt 0.744527 0.859683
vt 0.726686 0.888406
vt 0.725118 0.858809
vt 0.799551 0.847703
vt 0.800355 0.825693
vt 0.819523 0.811915
vt 0.811965 0.845277
vt 0.829237 0.807606
vt 0.834822 0.851716
vt 0.859500 0.808891
vt 0.857056 0.858305
vt 0.817848 0.788268
vt 0.839626 0.755689
vt 0.809489 0.802241
vt 0.777380 0.779779
vt 0.779191 0.743158
vt 0.789835 0.823237
vt 0.777873 0.795613
vt 0.761196 0.808536
vt 0.755323 0.802221
vt 0.732039 0.785600
vt 0.759805 0.816748
vt 0.743042 0.814543
vt 0.725118 0.809494
vt 0.759546 0.845973
vt 0.781737 0.842754
vt 0.738482 0.840242
vt 0.725118 0.826356
vt 0.731064 0.662960
vt 0.731113 0.662963
vt 0.731674 0.662672
vt 0.731516 0.662907
vt 0.731336 0.662695
vt 0.731482 0.662238
vt 0.731154 0.662603
vt 0.730774 0.662251
vt 0.731000 0.662645
vt 0.731088 0.662854
vt 0.731127 0.662861
vt 0.859048 0.598516
vt 0.915751 0.609056
vt 0.970710 0.647335
vt 0.965921 0.719043
vt 0.902949 0.757302
vt 0.878411 0.757302
vt 0.856654 0.755163
vt 0.857714 0.691861
vt 0.880685 0.685031
vt 0.881010 0.672647
vt 0.855977 0.667476
vt 0.145002 0.638522
vt 0.295458 0.644435
vt 0.272740 0.576627
vt 0.455361 0.643053
vt 0.355879 0.602740
vt 0.392342 0.537267
vt 0.301958 0.557045
vt 0.327333 0.360406
vt 0.266008 0.342869
vt 0.273248 0.314709
vt 0.312239 0.326808
vt 0.513352 0.386003
vt 0.509158 0.612068
vt 0.425692 0.275125
vt 0.209101 0.332470
vt 0.223299 0.301711
vt 0.407253 0.288934
vt 0.210933 0.000252
vt 0.288802 0.056326
vt 0.155083 0.262804
vt 0.217742 0.258267
vt 0.000252 0.856603
vt 0.313337 0.659486
vt 0.327136 0.671710
vt 0.347262 0.636985
vt 0.356144 0.649411
vt 0.695536 0.455918
vt 0.665551 0.206689
vt 0.654304 0.280962
vt 0.708886 0.501375
vt 0.159679 0.273407
vt 0.407151 0.414883
vt 0.402043 0.413628
vt 0.716489 0.297151
vt 0.764578 0.315147
vt 0.709711 0.398760
vt 0.681248 0.387017
vt 0.808151 0.358724
vt 0.737701 0.423470
vt 0.364050 0.425030
vt 0.870899 0.528897
vt 0.848457 0.423975
vt 0.916358 0.440793
vt 0.902426 0.504893
vt 0.928195 0.583364
vt 0.940116 0.537003
vt 0.407833 0.991574
vt 0.316087 0.993313
vt 0.349409 0.938063
vt 0.438454 0.886547
vt 0.897425 0.122622
vt 0.812245 0.189601
vt 0.796021 0.117870
vt 0.872963 0.081229
vt 0.652775 0.583868
vt 0.701480 0.618512
vt 0.640329 0.672155
vt 0.628918 0.665747
vt 0.767267 0.423975
vt 0.771185 0.479792
vt 0.643603 0.376499
vt 0.823512 0.266129
vt 0.849246 0.338547
vt 0.732000 0.199168
vt 0.219765 0.265919
vt 0.769518 0.023253
vt 0.818001 0.000252
vt 0.668148 0.029226
vt 0.739629 0.027655
vt 0.568255 0.373138
vt 0.383325 0.453459
vt 0.378920 0.492303
vt 0.374052 0.450179
vt 0.977788 0.509323
vt 0.366077 0.451349
vt 0.473750 0.917575
vt 0.482952 0.963445
vt 0.621077 0.787699
vt 0.513856 0.725682
vt 0.603364 0.693018
vt 0.624895 0.701585
vt 0.724613 0.657691
vt 0.646804 0.679514
vt 0.527425 0.613185
vt 0.602055 0.668236
vt 0.664799 0.780190
vt 0.635263 0.702073
vt 0.605949 0.000252
vt 0.576970 0.809477
vt 0.610921 0.788203
vt 0.642408 0.809477
vt 0.576466 0.829894
vt 0.513856 0.829894
vt 0.564295 0.788203
vt 0.583548 0.825559
vt 0.576970 0.809981
vt 0.638369 0.809981
vt 0.667726 0.827166
vt 0.642913 0.810392
vt 0.699904 0.810392
vt 0.642913 0.788203
vt 0.705522 0.788204
vt 0.700355 0.809888
vt 0.597129 0.832986
vt 0.576970 0.826063
vt 0.613258 0.826063
vt 0.724613 0.715955
vt 0.645961 0.690575
vn -0.1881 -0.8931 -0.4086
vn -0.4837 0.5996 -0.6376
vn -0.9876 0.1171 -0.1049
vn -0.6715 -0.1984 0.7139
vn -0.8687 0.2906 -0.4012
vn -0.6430 0.5025 -0.5779
vn -0.3029 0.2962 -0.9058
vn -0.4410 0.3741 -0.8158
vn 0.3185 0.3298 0.8887
vn 0.6249 0.6457 0.4387
vn 0.6165 0.6469 0.4489
vn 0.2680 0.4693 0.8414
vn 0.0351 -0.5031 0.8635
vn 0.6257 0.5923 0.5077
vn 0.5167 -0.4511 0.7277
vn -0.3282 0.3909 0.8599
vn 0.0000 -1.0000 -0.0000
vn -0.6104 -0.6178 0.4957
vn -0.6814 -0.6944 0.2314
vn 0.3212 -0.3880 0.8639
vn 0.4816 -0.6043 0.6348
vn 0.5825 0.2637 0.7688
vn 0.7891 0.3764 0.4854
vn 0.2578 0.1809 0.9491
vn 0.0955 -0.6958 0.7118
vn -0.0350 -0.7237 0.6892
vn 0.7337 -0.0085 0.6794
vn 0.0740 -0.8845 0.4607
vn -0.1311 -0.7487 0.6498
vn -0.3209 -0.2999 0.8984
vn -0.8322 0.5523 0.0494
vn -0.4796 0.5215 0.7057
vn -0.9166 0.3859 0.1048
vn -0.4789 0.2850 0.8303
vn 0.4308 0.3975 0.8102
vn -0.5923 0.3645 0.7185
vn 0.9398 0.2255 -0.2568
vn 0.7246 -0.6065 -0.3272
vn 0.7126 -0.6117 -0.3435
vn 0.8712 0.1979 -0.4492
vn -0.9349 0.3360 0.1145
vn -0.5543 0.4773 0.6818
vn 0.9904 0.0318 -0.1347
vn 0.9839 0.1237 -0.1290
vn 0.4955 0.6075 -0.6208
vn 0.3463 -0.8153 -0.4641
vn -0.7522 -0.6241 0.2114
vn -0.6971 0.4634 0.5471
vn -0.7618 -0.5895 0.2685
vn -0.7218 0.6444 0.2525
vn -0.3900 -0.5651 0.7270
vn -0.4049 0.6015 0.6887
vn 0.3821 -0.5626 0.7332
vn 0.3421 0.6262 0.7006
vn 0.7638 -0.5838 0.2753
vn 0.7015 0.6673 0.2503
vn 0.8148 -0.5797 -0.0013
vn 0.7098 0.7033 -0.0396
vn 0.0156 -0.9986 -0.0498
vn -0.1528 -0.9857 0.0713
vn -0.0354 -0.9889 0.1442
vn 0.0820 -0.9960 0.0353
vn 0.0865 -0.9917 0.0954
vn 0.0935 -0.9946 0.0444
vn 0.0634 -0.9933 0.0971
vn 0.0935 -0.9937 0.0621
vn 0.0091 -0.9954 0.0954
vn 0.1532 -0.9846 0.0845
vn -0.4824 -0.5856 0.6514
vn -0.3209 0.2963 0.8996
vn 0.7633 0.4548 0.4589
vn 0.1301 0.6756 0.7257
vn 0.6387 0.4359 0.6341
vn 0.9921 0.0883 0.0887
vn 0.9327 0.1998 0.3002
vn 0.7191 -0.6949 -0.0028
vn 0.7758 -0.5940 0.2128
vn 0.4930 -0.5116 0.7037
vn 0.3343 0.3438 0.8776
vn -0.7077 0.2697 0.6531
vn -0.8940 0.4467 0.0350
vn -0.2434 -0.9674 -0.0695
vn -0.9322 0.2636 -0.2481
vn -0.7179 -0.6953 -0.0355
vn -0.8575 0.4795 -0.1866
vn 0.8343 0.4611 -0.3023
vn 0.8181 0.5629 -0.1178
vn 0.8082 0.5469 -0.2184
vn 0.8361 0.4238 -0.3485
vn 0.7244 -0.6807 -0.1088
vn 0.8127 0.4721 0.3414
vn 0.9439 0.2123 -0.2530
vn 0.4469 -0.6178 0.6470
vn 0.6473 -0.6251 0.4361
vn -0.9428 0.1707 0.2862
vn -0.7187 -0.6595 0.2203
vn -0.8366 0.1396 -0.5297
vn -0.6154 -0.6380 -0.4629
vn 0.9046 0.4255 -0.0251
vn 0.9112 0.4098 0.0416
vn 0.5714 0.2116 0.7929
vn 0.7875 -0.4995 -0.3611
vn 0.8037 0.4460 -0.3938
vn 0.8349 0.3862 -0.3921
vn 0.4419 0.4810 -0.7572
vn 0.4246 0.3280 -0.8439
vn 0.8508 0.3091 -0.4250
vn -0.2888 0.4666 -0.8360
vn -0.2511 0.3214 -0.9130
vn 0.7073 0.4569 -0.5395
vn 0.3613 0.5234 -0.7717
vn 0.1436 0.2792 -0.9494
vn 0.0600 0.4304 -0.9006
vn -0.3981 0.5056 -0.7654
vn -0.2769 0.4420 -0.8532
vn -0.8322 0.4200 -0.3620
vn -0.8105 0.3927 -0.4346
vn 0.9499 0.3058 0.0645
vn 0.5842 0.7596 -0.2859
vn 0.6601 0.7495 0.0502
vn 0.8617 0.3997 -0.3127
vn 0.8762 0.1780 0.4479
vn -0.8264 0.3282 -0.4576
vn -0.6052 0.4175 0.6778
vn -0.9455 0.3106 0.0975
vn 0.4886 0.4471 0.7492
vn 0.2514 -0.3231 -0.9124
vn -0.4091 -0.4972 -0.7652
vn 0.2211 0.5248 -0.8220
vn -0.4590 0.7412 0.4898
vn -0.6399 0.7653 0.0690
vn 0.3039 0.7225 -0.6210
vn 0.3810 0.7379 0.5571
vn -0.5976 0.7296 -0.3324
vn -0.1853 0.7312 -0.6565
usemtl mountain
s 1
f 1/1/1 2/2/2 3/3/3 4/4/4
f 5/5/5 6/6/6 7/7/7 8/8/8
f 9/9/9 10/10/10 11/11/11 12/12/12
f 13/13/13 14/14/14 15/15/15 16/16/16
f 17/17/17 13/13/13 18/18/18 19/19/19
f 9/20/9 20/21/20 21/22/21 22/23/22
f 12/12/12 11/11/11 23/24/23 24/25/24
f 16/16/16 15/15/15 25/26/25 26/27/26 4/28/4 27/29/27 28/30/28 29/31/29 30/32/30 9/20/9
f 31/33/31 16/34/16 32/35/32 33/36/33
f 34/37/34 24/38/24 35/39/35 36/40/36
f 37/41/37 38/42/38 39/43/39 40/44/40
f 32/35/32 12/45/12 24/46/24 34/47/34
f 33/36/33 32/35/32 34/47/34
f 33/48/33 34/37/34 36/40/36 41/49/41
f 24/50/24 23/51/23 35/52/35
f 30/32/30 42/53/42 20/21/20 9/20/9
f 27/54/27 43/55/43 44/56/44 45/57/45 46/58/46
f 4/4/4 3/3/3 47/59/47 48/60/48
f 46/58/46 45/57/45 2/2/2 1/1/1
f 42/61/42 30/62/30 49/63/49 50/64/50
f 50/64/50 49/63/49 51/65/51 52/66/52
f 52/66/52 51/65/51 53/67/53 54/68/54
f 54/68/54 53/67/53 55/69/55 56/70/56
f 56/70/56 55/69/55 57/71/57 58/72/58
f 58/72/58 57/71/57 15/73/15 14/74/14
f 27/75/27 46/76/46 59/77/59 28/78/28
f 28/78/28 59/77/59 60/79/60 29/80/29
f 29/80/29 60/79/60 49/81/49 30/82/30
f 49/81/49 60/79/60 61/83/61 51/84/51
f 60/79/60 59/77/59 62/85/62 61/83/61
f 59/77/59 46/76/46 62/85/62
f 51/84/51 61/83/61 63/86/63 53/87/53
f 62/85/62 46/76/46 1/88/1 64/89/64
f 61/83/61 62/85/62 64/89/64 63/86/63
f 64/89/64 1/88/1 65/90/65
f 53/87/53 63/86/63 66/91/66 55/92/55
f 63/86/63 64/89/64 65/90/65 66/91/66
f 65/90/65 1/88/1 67/93/67
f 55/92/55 66/91/66 68/94/68 57/95/57
f 66/91/66 65/90/65 67/93/67 68/94/68
f 26/96/26 67/93/67 1/88/1 4/97/4
f 67/93/67 26/96/26 25/98/25 68/94/68
f 57/95/57 68/94/68 25/98/25 15/99/15
f 48/60/48 47/59/47 69/100/69 70/101/70
f 71/102/71 72/103/72 73/104/73
f 74/105/74 71/102/71 73/104/73 75/106/75
f 3/3/3 44/56/44 76/107/76 77/108/77 47/59/47
f 70/101/70 69/100/69 78/109/78 79/110/79
f 73/104/73 72/103/72 48/60/48 70/101/70 79/110/79
f 77/108/77 75/106/75 73/104/73 79/110/79 78/109/78
f 47/59/47 77/108/77 78/109/78 69/100/69
f 42/111/42 50/112/50 52/113/52 54/114/54 56/115/56 58/116/58 14/117/14 3/118/3 2/119/2 45/120/45 44/121/44
f 19/19/19 18/18/18 80/122/80 81/123/81
f 13/13/13 16/16/16 80/122/80 18/18/18
f 16/16/16 31/124/31 81/123/81 80/122/80
f 82/125/82 83/126/83 5/5/5 84/127/84
f 85/128/85 83/126/83 31/124/31
f 86/129/86 87/130/87 88/131/88 89/132/89
f 90/133/17 17/134/17 82/125/82 91/135/90
f 87/130/87 10/136/10 92/137/91 88/131/88
f 93/138/92 86/129/86 89/132/89 40/44/40
f 20/21/20 90/139/17 94/140/17 95/141/93 21/22/21
f 95/141/93 94/140/17 38/42/38 96/142/94
f 9/143/9 12/45/12 32/35/32 16/34/16
f 31/124/31 83/126/83 81/123/81
f 19/19/19 81/123/81 97/144/95 98/145/96
f 98/145/96 97/144/95 99/146/97 100/147/98
f 81/123/81 83/126/83 99/146/97 97/144/95
f 83/126/83 82/125/82 100/147/98 99/146/97
f 82/125/82 19/19/19 98/145/96 100/147/98
f 11/11/11 10/10/10 87/148/87
f 35/52/35 23/51/23 101/149/99 102/150/100
f 23/24/23 11/11/11 87/148/87 101/151/99
f 103/152/101 10/136/10 9/20/9 22/23/22
f 93/138/92 91/135/90 104/153/102 105/154/103
f 106/155/104 107/156/105 108/157/106 109/158/107
f 107/156/105 110/159/108 111/160/109 108/157/106
f 91/135/90 82/125/82 84/127/84 104/153/102
f 93/138/92 105/154/103 112/161/110 86/129/86
f 113/162/111 112/163/110 114/164/112 115/165/113
f 116/166/114 113/162/111 115/165/113 117/167/115
f 6/168/6 85/169/85 118/170/116 116/171/114
f 5/5/5 83/126/83 85/128/85 6/6/6
f 94/140/17 91/135/90 39/43/39 38/42/38
f 116/172/114 118/173/116 119/174/117 110/175/108
f 120/176/118 109/177/107 121/178/119 122/179/120
f 86/180/86 112/163/110 113/162/111 123/181/121
f 87/148/87 86/180/86 123/181/121 101/151/99
f 85/169/85 31/33/31 33/36/33 118/170/116
f 102/150/100 106/155/104 109/158/107 120/182/118
f 113/183/111 116/184/114 110/159/108 107/156/105
f 123/185/121 113/183/111 107/156/105 106/155/104
f 118/173/116 33/48/33 41/49/41 119/174/117
f 101/149/99 123/185/121 106/155/104 102/150/100
f 21/22/21 95/141/93 103/152/101 22/23/22
f 40/44/40 88/131/88 37/41/37
f 88/131/88 92/137/91 124/186/122 37/41/37
f 110/175/108 119/174/117 125/187/123 111/188/109
f 41/49/41 36/40/36 126/189/124 127/190/125
f 35/52/35 102/150/100 120/182/118 128/191/126
f 38/42/38 37/41/37 124/186/122 96/142/94
f 40/44/40 89/132/89 88/131/88
f 103/152/101 95/141/93 96/142/94 124/186/122
f 91/135/90 93/138/92 40/44/40 39/43/39
f 10/136/10 103/152/101 124/186/122 92/137/91
f 129/192/127 130/193/128 8/8/8 131/194/129
f 114/164/112 7/195/7 117/167/115 115/165/113
f 131/194/129 8/8/8 7/7/7 114/196/112
f 84/127/84 5/5/5 8/8/8 130/193/128
f 112/161/110 105/154/103 131/194/129 114/196/112
f 104/153/102 84/127/84 130/193/128 129/192/127
f 6/168/6 116/171/114 117/197/115 7/198/7
f 105/154/103 104/153/102 129/192/127 131/194/129
f 127/199/125 126/200/124 132/201/130 133/202/131
f 109/177/107 108/203/106 134/204/132 121/178/119
f 126/200/124 128/205/126 135/206/133 132/201/130
f 128/205/126 120/176/118 122/179/120 135/206/133
f 125/207/123 127/199/125 133/202/131 136/208/134
f 36/40/36 35/39/35 128/209/126 126/189/124
f 119/174/117 41/49/41 127/190/125 125/187/123
f 133/210/131 132/211/130 135/212/133
f 122/213/120 133/214/131 135/215/133
f 136/216/134 133/217/131 121/218/119
f 137/219/135 136/220/134 121/221/119
f 133/222/131 122/223/120 121/224/119
f 134/225/132 137/226/135 121/227/119
f 108/203/106 111/228/109 137/229/135 134/204/132
f 111/228/109 125/207/123 136/208/134 137/229/135
f 76/107/76 74/105/74 75/106/75 77/108/77
f 44/56/44 43/55/43 74/105/74 76/107/76
f 43/55/43 27/54/27 71/102/71 74/105/74
f 27/54/27 4/4/4 48/60/48 72/103/72 71/102/71
