# Blender v2.79 (sub 0) OBJ File: 'escudo.blend'
# www.blender.org
mtllib escudo.mtl
o ESCUDO_Cube.003
v -0.456886 0.053665 -1.016360
v -0.296069 0.793405 -1.002068
v -0.987237 0.053665 -0.500663
v -0.977456 0.793405 -0.339509
v -0.488972 0.053665 -1.049358
v -0.337293 0.793405 -1.044463
v -1.019323 0.053665 -0.533660
v -1.018679 0.793405 -0.381904
v -0.722062 -0.219860 -0.758511
v -0.722062 0.799573 -0.758511
v -0.754148 -0.219860 -0.791509
v -0.754148 0.799573 -0.791509
v -0.863981 0.662879 -0.620513
v -0.896067 -0.121894 -0.653511
v -0.863981 -0.121894 -0.620513
v -0.896067 0.662879 -0.653511
v -0.589474 -0.126119 -0.887436
v -0.621560 0.667104 -0.920433
v -0.589474 0.667104 -0.887436
v -0.621560 -0.126119 -0.920433
v -0.782305 0.053665 0.744162
v -0.835439 0.793405 0.591705
v -0.094084 0.053665 1.015394
v 0.048777 0.793405 0.940180
v -0.799181 0.053665 0.786982
v -0.857121 0.793405 0.646720
v -0.110959 0.053665 1.058215
v 0.027095 0.793405 0.995195
v -0.438194 -0.219860 0.879778
v -0.438194 0.799573 0.879778
v -0.455070 -0.219860 0.922598
v -0.455070 0.799573 0.922598
v -0.254030 0.662879 0.952358
v -0.270905 -0.121894 0.995179
v -0.254030 -0.121894 0.952358
v -0.270905 0.662879 0.995179
v -0.610250 -0.126119 0.811970
v -0.627126 0.667104 0.854790
v -0.610250 0.667104 0.811970
v -0.627126 -0.126119 0.854790
v 0.867396 0.053665 0.342605
v 0.752339 0.793405 0.455866
v 0.818050 0.053665 -0.395488
v 0.688939 0.793405 -0.492424
v 0.913319 0.053665 0.339535
v 0.811340 0.793405 0.451921
v 0.863973 0.053665 -0.398558
v 0.747940 0.793405 -0.496369
v 0.842723 -0.219860 -0.026441
v 0.842723 0.799573 -0.026441
v 0.888646 -0.219860 -0.029512
v 0.888646 0.799573 -0.029512
v 0.829518 0.662879 -0.223951
v 0.875441 -0.121894 -0.227022
v 0.829518 -0.121894 -0.223951
v 0.875441 0.662879 -0.227022
v 0.855060 -0.126119 0.158082
v 0.900983 0.667104 0.155012
v 0.855060 0.667104 0.158082
v 0.900983 -0.126119 0.155012
vt 0.695759 0.038722
vt 0.696768 0.161349
vt 0.651217 0.182547
vt 0.668790 0.066295
vt 0.885249 0.428903
vt 0.889571 0.559242
vt 0.879241 0.557914
vt 0.877208 0.427869
vt 0.148654 0.652264
vt 0.155196 0.930438
vt 0.056889 0.975582
vt 0.084479 0.716624
vt 0.954274 0.304756
vt 0.958953 0.214988
vt 0.969307 0.214122
vt 0.962334 0.304082
vt 0.966631 0.348052
vt 0.958571 0.348725
vt 0.954274 0.533581
vt 0.961973 0.536043
vt 0.974532 0.574864
vt 0.964642 0.571702
vt 0.937186 0.124665
vt 0.945294 0.124750
vt 0.945294 0.147426
vt 0.937186 0.147341
vt 0.968437 0.401801
vt 0.960378 0.402474
vt 0.961248 0.384173
vt 0.969307 0.383500
vt 0.284624 0.651031
vt 0.291097 0.926241
vt 0.221946 0.975582
vt 0.213538 0.618079
vt 0.756319 0.037748
vt 0.757340 0.161696
vt 0.728256 0.182547
vt 0.726945 0.023252
vt 0.347109 0.711378
vt 0.394311 0.968842
vt 0.881530 0.396871
vt 0.889571 0.397905
vt 0.934609 0.469579
vt 0.944281 0.465817
vt 0.944281 0.522777
vt 0.936753 0.525705
vt 0.785804 0.065690
vt 0.801555 0.181769
vt 0.966834 0.496386
vt 0.974532 0.498847
vt 0.826158 0.159380
vt 0.905080 0.144363
vt 0.935907 0.191108
vt 0.843814 0.185546
vt 0.907206 0.242171
vt 0.915566 0.371835
vt 0.905397 0.371092
vt 0.899292 0.241592
vt 0.577840 0.647406
vt 0.584603 0.925575
vt 0.487398 0.970711
vt 0.513867 0.711771
vt 0.918984 0.529149
vt 0.916761 0.398688
vt 0.926789 0.396871
vt 0.926789 0.527735
vt 0.926332 0.560466
vt 0.918526 0.561881
vt 0.930203 0.332889
vt 0.937302 0.332455
vt 0.945421 0.379130
vt 0.936300 0.379688
vt 0.930563 0.267023
vt 0.937662 0.266589
vt 0.926023 0.298343
vt 0.918924 0.298777
vt 0.819500 0.158767
vt 0.809648 0.126646
vt 0.816306 0.127258
vt 0.713500 0.646159
vt 0.720191 0.921364
vt 0.651239 0.970711
vt 0.642548 0.613215
vt 0.825734 0.093703
vt 0.905505 0.078524
vt 0.918827 0.107751
vt 0.775893 0.706499
vt 0.824046 0.963938
vt 0.907651 0.210808
vt 0.915566 0.211387
vt 0.936300 0.216016
vt 0.945421 0.215458
vt 0.843814 0.058502
vt 0.935907 0.027884
vt 0.819075 0.093091
vt 0.374144 0.036791
vt 0.372952 0.159135
vt 0.332154 0.179845
vt 0.346921 0.064023
vt 0.884474 0.290900
vt 0.891472 0.380871
vt 0.881117 0.380003
vt 0.876415 0.290224
vt 0.162238 0.251627
vt 0.155024 0.533776
vt 0.044193 0.575307
vt 0.094435 0.314225
vt 0.954274 0.157319
vt 0.967728 0.028423
vt 0.977852 0.028286
vt 0.962154 0.157212
vt 0.970053 0.189220
vt 0.962174 0.189327
vt 0.936763 0.396871
vt 0.944325 0.399709
vt 0.944325 0.458125
vt 0.934609 0.454479
vt 0.954274 0.449297
vt 0.961969 0.446827
vt 0.975287 0.486223
vt 0.967593 0.488693
vt 0.888636 0.249190
vt 0.880577 0.248514
vt 0.883412 0.210808
vt 0.891472 0.211484
vt 0.299192 0.255925
vt 0.292055 0.535069
vt 0.219987 0.582246
vt 0.229258 0.219633
vt 0.434186 0.036438
vt 0.432981 0.160100
vt 0.403782 0.180604
vt 0.405331 0.021676
vt 0.359107 0.319626
vt 0.384240 0.582246
vt 0.965402 0.413340
vt 0.975287 0.410167
vt 0.462911 0.064613
vt 0.481176 0.180604
vt 0.929366 0.147960
vt 0.921930 0.150527
vt 0.921930 0.127232
vt 0.929366 0.124665
vt 0.977852 0.206323
vt 0.969972 0.206430
vn 0.8377 -0.0627 0.5426
vn -0.7098 -0.1410 0.6902
vn -0.5481 0.0569 -0.8344
vn 0.7098 -0.1410 -0.6902
vn 0.4997 -0.7170 -0.4859
vn -0.2860 0.9170 0.2781
vn -0.4074 0.8229 0.3961
vn -0.3180 -0.8962 0.3092
vn -0.6971 0.0000 -0.7169
vn 0.6971 0.0000 0.7169
vn -0.8251 0.0563 -0.5622
vn -0.5122 -0.6997 0.4981
vn 0.3054 0.9048 -0.2969
vn 0.5293 -0.0634 0.8461
vn 0.4175 0.8130 -0.4060
vn 0.3241 -0.8920 -0.3152
vn 0.1499 -0.0627 -0.9867
vn 0.9211 -0.1410 0.3630
vn -0.5351 0.0569 0.8429
vn -0.9211 -0.1410 -0.3630
vn -0.6485 -0.7170 -0.2556
vn 0.3712 0.9170 0.1463
vn 0.5287 0.8229 0.2083
vn 0.4127 -0.8962 0.1626
vn -0.3667 0.0000 0.9304
vn 0.3667 0.0000 -0.9304
vn -0.1730 0.0563 0.9833
vn 0.6647 -0.6997 0.2620
vn -0.3963 0.9048 -0.1562
vn 0.5534 -0.0634 -0.8305
vn -0.5418 0.8130 -0.2135
vn -0.4206 -0.8920 -0.1658
vn -0.9560 -0.0627 0.2867
vn -0.0660 -0.1410 -0.9878
vn 0.9908 0.0569 0.1229
vn 0.0660 -0.1410 0.9878
vn 0.0465 -0.7170 0.6955
vn -0.0266 0.9170 -0.3981
vn -0.0379 0.8229 -0.5670
vn -0.0296 -0.8962 -0.4426
vn 0.9978 0.0000 -0.0667
vn -0.9978 0.0000 0.0667
vn 0.9628 0.0563 -0.2644
vn -0.0477 -0.6997 -0.7129
vn 0.0284 0.9048 0.4250
vn -0.9874 -0.0634 -0.1448
vn 0.0388 0.8130 0.5810
vn 0.0302 -0.8920 0.4511
usemtl mat_escudo
s off
f 15/1/1 13/2/1 4/3/1 3/4/1
f 3/5/2 4/6/2 8/7/2 7/8/2
f 20/9/3 18/10/3 6/11/3 5/12/3
f 5/13/4 6/14/4 2/15/4 1/16/4
f 17/17/5 20/18/5 5/13/5 1/16/5
f 18/19/6 19/20/6 2/21/6 6/22/6
f 16/23/7 13/24/7 10/25/7 12/26/7
f 15/27/8 14/28/8 11/29/8 9/30/8
f 14/31/9 16/32/9 12/33/9 11/34/9
f 17/35/10 19/36/10 10/37/10 9/38/10
f 7/39/11 8/40/11 16/32/11 14/31/11
f 3/5/12 7/8/12 14/41/12 15/42/12
f 8/43/13 4/44/13 13/45/13 16/46/13
f 9/38/10 10/37/10 13/2/10 15/1/10
f 1/47/14 2/48/14 19/36/14 17/35/14
f 12/49/15 10/50/15 19/20/15 18/19/15
f 9/30/16 11/29/16 20/18/16 17/17/16
f 11/34/9 12/33/9 18/10/9 20/9/9
f 35/51/17 33/52/17 24/53/17 23/54/17
f 23/55/18 24/56/18 28/57/18 27/58/18
f 40/59/19 38/60/19 26/61/19 25/62/19
f 25/63/20 26/64/20 22/65/20 21/66/20
f 37/67/21 40/68/21 25/63/21 21/66/21
f 38/69/22 39/70/22 22/71/22 26/72/22
f 36/73/23 33/74/23 30/75/23 32/76/23
f 35/51/24 34/77/24 31/78/24 29/79/24
f 34/80/25 36/81/25 32/82/25 31/83/25
f 37/84/26 39/85/26 30/86/26 29/79/26
f 27/87/27 28/88/27 36/81/27 34/80/27
f 23/55/28 27/58/28 34/89/28 35/90/28
f 28/91/29 24/92/29 33/74/29 36/73/29
f 29/79/26 30/86/26 33/52/26 35/51/26
f 21/93/30 22/94/30 39/85/30 37/84/30
f 32/76/31 30/75/31 39/70/31 38/69/31
f 29/79/32 31/78/32 40/95/32 37/84/32
f 31/83/25 32/82/25 38/60/25 40/59/25
f 55/96/33 53/97/33 44/98/33 43/99/33
f 43/100/34 44/101/34 48/102/34 47/103/34
f 60/104/35 58/105/35 46/106/35 45/107/35
f 45/108/36 46/109/36 42/110/36 41/111/36
f 57/112/37 60/113/37 45/108/37 41/111/37
f 58/114/38 59/115/38 42/116/38 46/117/38
f 56/118/39 53/119/39 50/120/39 52/121/39
f 55/122/40 54/123/40 51/124/40 49/125/40
f 54/126/41 56/127/41 52/128/41 51/129/41
f 57/130/42 59/131/42 50/132/42 49/133/42
f 47/134/43 48/135/43 56/127/43 54/126/43
f 43/100/44 47/103/44 54/123/44 55/122/44
f 48/136/45 44/137/45 53/119/45 56/118/45
f 49/133/42 50/132/42 53/97/42 55/96/42
f 41/138/46 42/139/46 59/131/46 57/130/46
f 52/140/47 50/141/47 59/142/47 58/143/47
f 49/144/48 51/145/48 60/113/48 57/112/48
f 51/129/41 52/128/41 58/105/41 60/104/41
