# Blender v2.78 (sub 0) OBJ File: 'carretera.blend'
# www.blender.org
mtllib carreteraprueba.mtl
v 0.424703 -4.805668 -23.966349
v 0.424703 -4.805668 -24.966349
v 0.424703 -4.805668 -25.966349
v 0.424703 -4.805668 -26.966349
v 0.424703 -4.805668 -96.677223
v -4.016428 -4.805668 -119.433716
v -16.854050 -4.805668 -153.880798
v -30.491936 -4.805668 -168.937546
v -43.043106 -4.805668 -178.189667
v -73.684303 -4.805668 -187.351410
v -92.768532 -4.805668 -187.351410
v -120.065628 -4.805668 -187.351410
v -136.802765 -4.805668 -172.037720
v -143.572037 -4.805668 -147.000458
v -146.771118 -4.805668 -36.914864
v -155.301971 -4.805668 -3.242716
v -150.011414 -4.805668 32.533905
v -161.839249 -4.805668 68.066055
v -170.107086 -4.805668 92.319267
v -166.517258 -4.805668 118.361481
g NurbsPath
cstype bspline
deg 4
curv 0.0 1.0 -1 -2 -3 -4 -5 -6 -7 -8 -9 -10 -11 -12 -13 -14 -15 -16 -17 -18 -19 -20
parm u 0.000000 0.000000 0.000000 0.000000 0.000000 0.208333 0.250000 0.291667 0.333333 0.375000 0.416667 0.458333 0.500000 0.541667 0.583333 0.625000 0.666667 0.708333 0.750000 0.791667 1.000000 1.000000 1.000000 1.000000 1.000000
end
v 0.213208 -4.805668 -8.473847
v 0.213208 -4.805668 76.582649
v -28.714275 -4.805668 104.738678
v -33.372391 -4.805668 122.013000
v -45.190289 -4.805668 134.045395
v -65.246201 -4.805668 137.696960
v -113.556244 -4.805668 137.696960
v -138.923721 -4.805668 131.419205
v -166.517258 -4.805668 118.361481
g NurbsPath
cstype bspline
deg 1
curv 0.0 1.0 -1 -2 -3 -4 -5 -6 -7 -8 -9
parm u 0.000000 0.000000 0.200000 0.300000 0.400000 0.500000 0.600000 0.700000 0.800000 1.000000 1.000000
end
o Plane
v -156.750076 -5.332366 -45.981613
v -134.252899 -5.332366 -45.981613
v -156.750076 -5.332372 -68.478775
v -134.252899 -5.332372 -68.478775
v -145.501465 -5.332366 -45.981613
v -145.501465 -5.332372 -68.478775
v -159.076065 -5.332362 -28.369843
v -136.578918 -5.332362 -28.369843
v -147.827484 -5.332362 -28.369843
v -165.892487 -5.332354 6.847936
v -143.395309 -5.332354 6.847936
v -154.643890 -5.332354 6.847936
v -161.319183 -5.332348 29.478321
v -138.821991 -5.332348 29.478321
v -150.070572 -5.332348 29.478321
v -167.314758 -5.332344 47.062157
v -146.401154 -5.332341 57.919323
v -157.649750 -5.332343 52.649902
v -173.531876 -5.332341 60.295013
v -152.618286 -5.332338 71.152168
v -163.866882 -5.332339 65.882751
v -177.181702 -5.332337 75.532928
v -159.243835 -5.332335 86.290436
v -168.998322 -5.332336 80.675514
v -181.949402 -5.332333 94.125137
v -161.255890 -5.332332 97.169785
v -172.418640 -5.332332 95.731033
v -173.301727 -5.332326 121.318008
v -157.399689 -5.332329 107.730614
v -165.824371 -5.332328 115.194016
v -155.613373 -5.332323 134.339111
v -139.711380 -5.332326 120.751717
v -148.136017 -5.332325 128.215134
v -127.945892 -5.332321 143.166290
v -112.043884 -5.332325 129.578903
v -120.468544 -5.332323 137.042313
v -88.707832 -5.332321 144.388977
v -102.295235 -5.332325 128.486954
v -94.831818 -5.332323 136.911575
v -63.833363 -5.332321 144.388977
v -77.420753 -5.332325 128.486954
v -69.957336 -5.332323 136.911575
v -42.203384 -5.332321 144.388977
v -55.790771 -5.332325 128.486954
v -48.327366 -5.332323 136.911575
v -24.665173 -5.332324 130.733459
v -48.546314 -5.332326 123.043930
v -34.169556 -5.332325 128.978165
v -20.173199 -5.332328 112.347954
v -43.619499 -5.332329 108.978905
v -32.950497 -5.332329 110.592659
v -6.558998 -5.332332 97.122589
v -25.554890 -5.332334 88.367760
v -15.250477 -5.332333 92.895012
v 8.581993 -5.332336 81.440842
v -10.413910 -5.332338 72.686020
v -0.109489 -5.332337 77.213272
v 11.030273 -5.332342 56.514439
v -9.579430 -5.332341 60.082600
v 1.474525 -5.332341 57.964340
v 10.410461 -5.332379 -99.242920
v -8.897934 -5.332377 -91.200699
v 1.412819 -5.332378 -95.713539
v 5.002968 -5.332385 -124.658150
v -14.305420 -5.332383 -116.615921
v -3.994675 -5.332384 -121.128746
v -8.515762 -5.332393 -158.725342
v -27.824150 -5.332391 -150.683121
v -17.513409 -5.332392 -155.195953
v -34.961391 -5.332400 -187.260529
v -47.660408 -5.332396 -170.640472
v -40.988243 -5.332398 -179.704636
v -62.539604 -5.332402 -195.912537
v -75.238625 -5.332398 -179.292465
v -68.566460 -5.332400 -188.356644
v -90.886238 -5.332402 -196.535614
v -79.808647 -5.332398 -178.793640
v -85.939476 -5.332400 -188.232361
v -124.953476 -5.332402 -196.535614
v -113.875854 -5.332398 -178.793640
v -120.006706 -5.332400 -188.232361
v -138.339478 -5.332399 -183.816574
v -120.917145 -5.332396 -172.242767
v -130.402115 -5.332397 -178.301804
v -150.235962 -5.332394 -164.349594
v -132.813629 -5.332392 -152.775787
v -142.298584 -5.332393 -158.834824
v -154.135376 -5.332388 -137.296753
v -133.223358 -5.332388 -136.873703
v -144.478424 -5.332388 -136.899841
v -134.252899 1.156626 -45.981613
v -156.750076 1.156626 -45.981613
v -156.750076 1.156621 -68.478775
v -134.252899 1.156621 -68.478775
v -159.076065 1.156631 -28.369844
v -136.578918 1.156631 -28.369844
v -165.892487 1.156639 6.847935
v -143.395309 1.156639 6.847935
v -161.319183 1.156645 29.478321
v -138.821991 1.156645 29.478321
v -167.314758 1.156649 47.062157
v -146.401154 1.156651 57.919323
v -173.531876 1.156652 60.295013
v -152.618286 1.156654 71.152168
v -177.181702 1.156656 75.532928
v -159.243835 1.156658 86.290436
v -181.949402 1.156660 94.125137
v -161.255890 1.156661 97.169785
v -173.301727 1.156666 121.318008
v -157.399689 1.156663 107.730614
v -155.613373 1.156669 134.339111
v -139.711380 1.156666 120.751717
v -127.945892 1.156672 143.166290
v -112.043884 1.156668 129.578903
v -88.707832 1.156672 144.388977
v -102.295235 1.156668 128.486954
v -63.833363 1.156672 144.388977
v -77.420753 1.156668 128.486954
v -42.203384 1.156672 144.388977
v -55.790771 1.156668 128.486954
v -24.665173 1.156669 130.733459
v -48.546314 1.156667 123.043930
v -20.173199 1.156664 112.347954
v -43.619499 1.156663 108.978905
v -6.558998 1.156661 97.122589
v -25.554890 1.156658 88.367760
v 8.581993 1.156657 81.440842
v -10.413910 1.156655 72.686020
v 11.030273 1.156651 56.514439
v -9.579430 1.156652 60.082600
v 10.410461 1.156614 -99.242920
v -8.897934 1.156616 -91.200699
v 5.002968 1.156608 -124.658150
v -14.305420 1.156610 -116.615921
v -8.515762 1.156600 -158.725342
v -27.824150 1.156601 -150.683121
v -34.961391 1.156593 -187.260529
v -47.660408 1.156597 -170.640472
v -62.539604 1.156591 -195.912537
v -75.238625 1.156595 -179.292465
v -90.886238 1.156591 -196.535614
v -79.808647 1.156595 -178.793640
v -124.953476 1.156591 -196.535614
v -113.875854 1.156595 -178.793640
v -138.339478 1.156594 -183.816574
v -120.917145 1.156596 -172.242767
v -150.235962 1.156598 -164.349594
v -132.813629 1.156601 -152.775787
v -154.135376 1.156605 -137.296753
v -133.223358 1.156605 -136.873703
v 1.451492 -5.332355 0.921584
v 10.798935 -5.332355 0.921584
v -9.325081 -5.332355 0.921584
v 10.798935 1.156638 0.921582
v -9.325081 1.156638 0.921582
v 1.452232 -5.332355 2.756863
v -9.333229 -5.332355 2.756863
v -9.333229 1.156638 2.756861
v 10.806343 -5.332355 2.756863
v 10.806343 1.156638 2.756861
v -10.708397 -5.332355 0.921584
v -10.708397 1.156638 0.921582
v -10.716545 -5.332355 2.756863
v -10.716545 1.156638 2.756861
v 12.060921 -5.332355 2.756863
v 12.053520 -5.332355 0.921584
v 12.060921 1.156638 2.756861
v 12.053520 1.156638 0.921582
v 10.806343 1.156638 2.756861
v 10.798935 1.156638 0.921582
v -9.325081 1.156638 0.921582
v -9.333229 1.156638 2.756861
v -10.708397 1.156638 0.921582
v -10.716545 1.156638 2.756861
v 12.060921 1.156638 2.756861
v 12.053520 1.156638 0.921582
v 10.806343 18.137085 2.756857
v 10.798935 18.137085 0.921578
v -9.325081 18.137085 0.921578
v -9.333229 18.137085 2.756857
v -10.708397 18.137085 0.921578
v -10.716545 18.137085 2.756857
v 12.060921 18.137085 2.756857
v 12.053520 18.137085 0.921578
v 10.806343 19.904491 2.756857
v 10.798935 19.904491 0.921578
v -9.325081 19.904491 0.921578
v -9.333229 19.904491 2.756857
v -10.708397 19.904491 0.921578
v -10.716545 19.904491 2.756857
v 12.060921 19.904491 2.756857
v 12.053520 19.904491 0.921578
vt 0.7020 0.4609
vt 0.6554 0.4570
vt 0.6666 0.3922
vt 0.7132 0.3960
vt 0.7487 0.4648
vt 0.7599 0.3999
vt 0.7495 0.5164
vt 0.7029 0.5125
vt 0.6563 0.5086
vt 0.7602 0.6202
vt 0.7136 0.6163
vt 0.6670 0.6124
vt 0.7300 0.6839
vt 0.6834 0.6800
vt 0.6368 0.6761
vt 0.7461 0.7366
vt 0.7033 0.7494
vt 0.6540 0.7607
vt 0.7653 0.7769
vt 0.7224 0.7897
vt 0.6732 0.8010
vt 0.7728 0.8221
vt 0.7363 0.8341
vt 0.6931 0.8469
vt 0.7833 0.8774
vt 0.7430 0.8787
vt 0.6960 0.8790
vt 0.7339 0.9527
vt 0.7060 0.9325
vt 0.6748 0.9081
vt 0.6541 0.9841
vt 0.6262 0.9639
vt 0.5950 0.9395
vt 0.5351 1.0000
vt 0.5071 0.9798
vt 0.4759 0.9553
vt 0.3718 0.9899
vt 0.4010 0.9705
vt 0.4361 0.9488
vt 0.2688 0.9813
vt 0.2979 0.9619
vt 0.3330 0.9402
vt 0.1791 0.9738
vt 0.2082 0.9544
vt 0.2433 0.9327
vt 0.1132 0.9284
vt 0.1535 0.9266
vt 0.2160 0.9145
vt 0.1038 0.8738
vt 0.1576 0.8732
vt 0.2026 0.8722
vt 0.0549 0.8252
vt 0.0931 0.8161
vt 0.1380 0.8066
vt 0.0000 0.7748
vt 0.0381 0.7656
vt 0.0831 0.7561
vt 0.0023 0.7021
vt 0.0411 0.7096
vt 0.0859 0.7195
vt 0.0697 0.5452
vt 0.0309 0.5419
vt 0.0824 0.2534
vt 0.1180 0.2667
vt 0.1143 0.5489
vt 0.1584 0.2832
vt 0.1175 0.1820
vt 0.1530 0.1953
vt 0.1935 0.2119
vt 0.1905 0.0885
vt 0.2260 0.1018
vt 0.2665 0.1183
vt 0.3143 0.0154
vt 0.3355 0.0393
vt 0.3586 0.0677
vt 0.4329 0.0000
vt 0.4541 0.0239
vt 0.4773 0.0523
vt 0.5507 0.0080
vt 0.5261 0.0302
vt 0.4959 0.0553
vt 0.6919 0.0198
vt 0.6672 0.0420
vt 0.6371 0.0671
vt 0.7410 0.0611
vt 0.7054 0.0743
vt 0.6630 0.0884
vt 0.7806 0.1214
vt 0.7450 0.1345
vt 0.7027 0.1487
vt 0.7833 0.2007
vt 0.7431 0.1985
vt 0.6964 0.1947
vt 0.8375 0.3233
vt 0.8375 0.3885
vt 0.8104 0.3885
vt 0.8104 0.3233
vt 0.9729 0.0000
vt 0.9729 0.0418
vt 0.9458 0.0418
vt 0.9458 0.0000
vt 0.9187 0.2983
vt 0.9187 0.3795
vt 0.8917 0.3795
vt 0.8917 0.2983
vt 0.9458 0.6214
vt 0.9458 0.5402
vt 0.9729 0.5402
vt 0.9729 0.6214
vt 0.8104 0.1766
vt 0.8104 0.2163
vt 0.7833 0.2163
vt 0.7833 0.1766
vt 0.8104 0.8909
vt 0.8104 0.9306
vt 0.7833 0.9306
vt 0.7833 0.8909
vt 0.8375 0.6918
vt 0.8375 0.7313
vt 0.8104 0.7313
vt 0.8104 0.6918
vt 0.8375 0.0000
vt 0.8375 0.0203
vt 0.8104 0.0203
vt 0.8104 0.0000
vt 0.8375 0.4590
vt 0.8375 0.3628
vt 0.8646 0.3628
vt 0.8646 0.4590
vt 0.8917 0.3392
vt 0.8917 0.4349
vt 0.8646 0.4349
vt 0.8646 0.3392
vt 0.9187 0.1007
vt 0.9187 0.0541
vt 0.9458 0.0541
vt 0.9458 0.1007
vt 0.9729 0.1053
vt 0.9458 0.1053
vt 0.9187 0.1843
vt 0.8917 0.1843
vt 0.9458 0.5120
vt 0.9729 0.5120
vt 0.8104 0.1317
vt 0.7833 0.1317
vt 0.8104 0.8320
vt 0.7833 0.8320
vt 0.8375 0.7763
vt 0.8104 0.7763
vt 0.8375 0.0788
vt 0.8104 0.0788
vt 0.8104 0.4364
vt 0.8104 0.4879
vt 0.7833 0.4879
vt 0.7833 0.4364
vt 0.9729 0.0798
vt 0.9729 0.0000
vt 1.0000 0.0000
vt 1.0000 0.0798
vt 0.8375 0.4400
vt 0.8104 0.4400
vt 0.9458 0.3773
vt 0.9458 0.4370
vt 0.9187 0.4370
vt 0.9187 0.3773
vt 0.9187 0.1489
vt 0.9458 0.1489
vt 0.9729 0.1540
vt 0.9458 0.1540
vt 0.9187 0.1121
vt 0.8917 0.1121
vt 0.9458 0.4399
vt 0.9729 0.4399
vt 0.8104 0.0769
vt 0.7833 0.0769
vt 0.8104 0.7528
vt 0.7833 0.7528
vt 0.8375 0.8082
vt 0.8104 0.8082
vt 0.8375 0.1250
vt 0.8104 0.1250
vt 0.8104 0.3330
vt 0.7833 0.3330
vt 0.9729 0.1607
vt 1.0000 0.1607
vt 0.8375 0.5433
vt 0.8104 0.5433
vt 0.9458 0.5180
vt 0.9187 0.5180
vt 0.9187 0.2216
vt 0.9458 0.2216
vt 0.9729 0.1907
vt 0.9458 0.1907
vt 0.9187 0.0494
vt 0.8917 0.0494
vt 0.9458 0.3771
vt 0.9729 0.3771
vt 0.8104 0.0000
vt 0.7833 0.0000
vt 0.8375 0.8381
vt 0.8104 0.8381
vt 0.8104 0.2685
vt 0.7833 0.2685
vt 0.9729 0.2430
vt 1.0000 0.2430
vt 0.8104 0.5530
vt 0.7833 0.5530
vt 0.8375 0.6080
vt 0.8104 0.6080
vt 0.9458 0.5312
vt 0.9187 0.5312
vt 0.9187 0.3773
vt 0.9458 0.3773
vt 0.8917 0.0000
vt 0.8917 0.2668
vt 0.8646 0.2668
vt 0.8646 0.0000
vt 0.9187 0.0000
vt 0.8917 0.0000
vt 0.9458 0.3567
vt 0.9729 0.3567
vt 0.9187 0.4322
vt 0.8917 0.4322
vt 0.9458 0.6741
vt 0.9729 0.6741
vt 0.9729 0.3419
vt 1.0000 0.3419
vt 0.9458 0.6300
vt 0.9187 0.6300
vt 0.8375 0.2901
vt 0.8646 0.2901
vt 0.9458 0.0000
vt 0.0000 0.0000
vt 0.0000 0.0000
vt 0.0000 0.0000
vt 0.0000 0.0000
vt 0.8375 0.0000
vt 0.8646 0.0000
vt 0.1134 0.5542
vt 0.0687 0.5505
vt 0.0300 0.5472
vt 0.9729 0.3567
vt 0.9458 0.3567
vt 0.8909 0.4349
vt 0.8909 0.4538
vt 0.8856 0.4538
vt 0.8856 0.4349
vt 0.8799 0.4538
vt 0.8722 0.4538
vt 0.8722 0.4349
vt 0.8799 0.4349
vt 0.8856 0.4349
vt 0.8856 0.4538
vt 0.8799 0.4538
vt 0.8799 0.4349
vt 0.8891 0.5911
vt 0.8891 0.6100
vt 0.8834 0.6100
vt 0.8834 0.5911
vt 0.1201 0.5494
vt 0.1192 0.5547
vt 0.8646 0.4349
vt 0.8722 0.4349
vt 0.8722 0.4538
vt 0.8646 0.4538
vt 0.8891 0.6100
vt 0.8891 0.5911
vt 0.8944 0.5911
vt 0.8944 0.6100
vt 0.0000 0.0000
vt 0.0000 0.0000
vt 0.0248 0.5468
vt 0.0257 0.5415
vt 0.8528 0.5911
vt 0.8604 0.5911
vt 0.8604 0.6404
vt 0.8528 0.6404
vt 0.8375 0.5251
vt 0.8375 0.5215
vt 0.9084 0.5215
vt 0.9084 0.5251
vt 0.0000 0.0000
vt 0.0000 0.0000
vt 0.0000 0.0000
vt 0.0000 0.0000
vt 0.0000 0.0000
vt 0.0000 0.0000
vt 0.0000 0.0000
vt 0.0000 0.0000
vt 0.0000 0.0000
vt 0.0000 0.0000
vt 0.8451 0.5911
vt 0.8528 0.5912
vt 0.8528 0.6496
vt 0.8451 0.6496
vt 0.8604 0.6404
vt 0.8681 0.6404
vt 0.8681 0.6456
vt 0.8604 0.6456
vt 0.8375 0.4630
vt 0.8375 0.4590
vt 0.9084 0.4590
vt 0.9084 0.4630
vt 0.8757 0.6404
vt 0.8681 0.6404
vt 0.8681 0.5911
vt 0.8757 0.5911
vt 0.8375 0.5287
vt 0.8375 0.5251
vt 0.9084 0.5251
vt 0.9084 0.5287
vt 0.8375 0.5911
vt 0.8375 0.5871
vt 0.9084 0.5871
vt 0.9084 0.5911
vt 0.8604 0.5911
vt 0.8681 0.5911
vt 0.8757 0.5911
vt 0.8834 0.5911
vt 0.8834 0.6404
vt 0.8757 0.6404
vt 0.8375 0.6532
vt 0.8451 0.6532
vt 0.8451 0.6573
vt 0.8375 0.6572
vt 0.8451 0.5948
vt 0.8375 0.5948
vt 0.8375 0.5912
vt 0.8451 0.5911
vt 0.9157 0.5215
vt 0.9157 0.5251
vt 0.8604 0.6456
vt 0.8528 0.6456
vt 0.9157 0.4590
vt 0.9157 0.4630
vt 0.9157 0.5251
vt 0.9157 0.5287
vt 0.9157 0.5871
vt 0.9157 0.5911
vn 0.0000 1.0000 -0.0000
vn -1.0000 0.0000 0.0000
vn 0.9438 0.0000 0.3306
vn 0.3040 0.0000 -0.9527
vn -0.3040 0.0000 0.9527
vn 0.9051 0.0000 0.4252
vn 0.6888 0.0000 0.7249
vn -0.9051 0.0000 -0.4252
vn -0.6812 0.0000 -0.7321
vn -0.9295 0.0000 0.3688
vn 0.9295 0.0000 -0.3688
vn -0.7454 0.0000 -0.6666
vn 0.7520 0.0000 0.6591
vn 0.0311 0.0000 -0.9995
vn 0.1113 0.0000 0.9938
vn 0.9725 0.0000 0.2329
vn 0.8533 0.0000 0.5214
vn -0.9161 0.0000 -0.4009
vn -0.8533 0.0000 -0.5215
vn 0.9914 0.0000 0.1309
vn -0.7335 0.0000 0.6797
vn -0.9914 0.0000 -0.1309
vn 0.7093 0.0000 -0.7050
vn -0.7194 0.0000 -0.6946
vn 0.7194 0.0000 0.6946
vn 0.0000 0.0000 -1.0000
vn 0.0000 0.0000 1.0000
vn 0.9687 0.0000 0.2484
vn 0.9898 0.0000 0.1427
vn -0.9833 0.0000 -0.1819
vn -0.9997 0.0000 -0.0258
vn 0.9818 0.0000 0.1900
vn -0.2993 0.0000 0.9541
vn -0.9818 0.0000 -0.1900
vn 0.2993 0.0000 -0.9541
vn -0.9952 0.0000 -0.0977
vn 0.9978 0.0000 0.0661
vn 0.9530 0.0000 -0.3031
vn -0.9999 0.0000 -0.0151
vn -0.9393 0.0000 0.3430
vn 0.9802 0.0000 -0.1981
vn -0.0220 0.0000 0.9998
vn 0.9993 0.0000 0.0380
vn -0.9802 0.0000 0.1981
vn -0.1085 0.0000 -0.9941
vn -1.0000 0.0000 0.0042
vn 1.0000 0.0000 0.0046
vn -0.6144 0.0000 -0.7890
vn 0.6007 0.0000 0.7995
vn 0.5928 0.0000 -0.8053
vn -0.5928 0.0000 0.8053
vn 0.9465 0.0000 0.3227
vn -0.9663 0.0000 -0.2575
vn 1.0000 0.0000 0.0000
vn -0.9781 0.0000 0.2081
vn 0.9781 0.0000 -0.2081
vn -0.9714 0.0000 -0.2373
vn -1.0000 0.0000 0.0039
vn 1.0000 0.0000 0.0043
vn 1.0000 0.0000 0.0044
vn -1.0000 0.0000 0.0040
vn -1.0000 0.0000 -0.0044
vn 1.0000 0.0000 -0.0040
vn 0.0000 -1.0000 0.0000
usemtl None
s off
f 34/1/1 31/2/1 33/3/1 35/4/1
f 30/5/1 34/1/1 35/4/1 32/6/1
f 34/1/1 30/5/1 36/7/1 38/8/1
f 31/2/1 34/1/1 38/8/1 37/9/1
f 38/8/1 36/7/1 39/10/1 41/11/1
f 37/9/1 38/8/1 41/11/1 40/12/1
f 41/11/1 39/10/1 42/13/1 44/14/1
f 40/12/1 41/11/1 44/14/1 43/15/1
f 44/14/1 42/13/1 45/16/1 47/17/1
f 43/15/1 44/14/1 47/17/1 46/18/1
f 47/17/1 45/16/1 48/19/1 50/20/1
f 46/18/1 47/17/1 50/20/1 49/21/1
f 50/20/1 48/19/1 51/22/1 53/23/1
f 49/21/1 50/20/1 53/23/1 52/24/1
f 53/23/1 51/22/1 54/25/1 56/26/1
f 52/24/1 53/23/1 56/26/1 55/27/1
f 56/26/1 54/25/1 57/28/1 59/29/1
f 55/27/1 56/26/1 59/29/1 58/30/1
f 59/29/1 57/28/1 60/31/1 62/32/1
f 58/30/1 59/29/1 62/32/1 61/33/1
f 62/32/1 60/31/1 63/34/1 65/35/1
f 61/33/1 62/32/1 65/35/1 64/36/1
f 65/35/1 63/34/1 66/37/1 68/38/1
f 64/36/1 65/35/1 68/38/1 67/39/1
f 68/38/1 66/37/1 69/40/1 71/41/1
f 67/39/1 68/38/1 71/41/1 70/42/1
f 71/41/1 69/40/1 72/43/1 74/44/1
f 70/42/1 71/41/1 74/44/1 73/45/1
f 74/44/1 72/43/1 75/46/1 77/47/1
f 73/45/1 74/44/1 77/47/1 76/48/1
f 77/47/1 75/46/1 78/49/1 80/50/1
f 76/48/1 77/47/1 80/50/1 79/51/1
f 80/50/1 78/49/1 81/52/1 83/53/1
f 79/51/1 80/50/1 83/53/1 82/54/1
f 83/53/1 81/52/1 84/55/1 86/56/1
f 82/54/1 83/53/1 86/56/1 85/57/1
f 86/56/1 84/55/1 87/58/1 89/59/1
f 85/57/1 86/56/1 89/59/1 88/60/1
f 180/61/1 181/62/1 90/63/1 92/64/1
f 182/65/1 180/61/1 92/64/1 91/66/1
f 92/64/1 90/63/1 93/67/1 95/68/1
f 91/66/1 92/64/1 95/68/1 94/69/1
f 95/68/1 93/67/1 96/70/1 98/71/1
f 94/69/1 95/68/1 98/71/1 97/72/1
f 98/71/1 96/70/1 99/73/1 101/74/1
f 97/72/1 98/71/1 101/74/1 100/75/1
f 101/74/1 99/73/1 102/76/1 104/77/1
f 100/75/1 101/74/1 104/77/1 103/78/1
f 104/77/1 102/76/1 105/79/1 107/80/1
f 103/78/1 104/77/1 107/80/1 106/81/1
f 107/80/1 105/79/1 108/82/1 110/83/1
f 106/81/1 107/80/1 110/83/1 109/84/1
f 110/83/1 108/82/1 111/85/1 113/86/1
f 109/84/1 110/83/1 113/86/1 112/87/1
f 113/86/1 111/85/1 114/88/1 116/89/1
f 112/87/1 113/86/1 116/89/1 115/90/1
f 116/89/1 114/88/1 117/91/1 119/92/1
f 115/90/1 116/89/1 119/92/1 118/93/1
f 119/92/1 117/91/1 32/6/1 35/4/1
f 118/93/1 119/92/1 35/4/1 33/3/1
f 33/94/2 31/95/2 120/96/2 123/97/2
f 76/98/3 79/99/3 153/100/3 151/101/3
f 63/102/4 60/103/4 140/104/4 142/105/4
f 61/106/5 64/107/5 143/108/5 141/109/5
f 48/110/6 45/111/6 130/112/6 132/113/6
f 111/114/7 108/115/7 172/116/7 174/117/7
f 46/118/8 49/119/8 133/120/8 131/121/8
f 109/122/9 112/123/9 175/124/9 173/125/9
f 96/126/10 93/127/10 162/128/10 164/129/10
f 94/130/11 97/131/11 165/132/11 163/133/11
f 81/134/12 78/135/12 152/136/12 154/137/12
f 79/99/13 82/138/13 155/139/13 153/100/13
f 66/140/14 63/102/14 142/105/14 144/141/14
f 64/107/15 67/142/15 145/143/15 143/108/15
f 51/144/16 48/110/16 132/113/16 134/145/16
f 114/146/17 111/114/17 174/117/17 176/147/17
f 49/119/18 52/148/18 135/149/18 133/120/18
f 112/123/19 115/150/19 177/151/19 175/124/19
f 36/152/20 30/153/20 121/154/20 124/155/20
f 99/156/21 96/157/21 164/158/21 166/159/21
f 31/95/22 37/160/22 125/161/22 120/96/22
f 97/162/23 100/163/23 167/164/23 165/165/23
f 84/166/24 81/134/24 154/137/24 156/167/24
f 82/138/25 85/168/25 157/169/25 155/139/25
f 69/170/26 66/140/26 144/141/26 146/171/26
f 67/142/27 70/172/27 147/173/27 145/143/27
f 54/174/28 51/144/28 134/145/28 136/175/28
f 117/176/29 114/146/29 176/147/29 178/177/29
f 52/148/30 55/178/30 137/179/30 135/149/30
f 115/150/31 118/180/31 179/181/31 177/151/31
f 39/182/32 36/152/32 124/155/32 126/183/32
f 102/184/33 99/156/33 166/159/33 168/185/33
f 37/160/34 40/186/34 127/187/34 125/161/34
f 100/163/35 103/188/35 169/189/35 167/164/35
f 87/190/36 84/166/36 156/167/36 158/191/36
f 85/168/37 88/192/37 159/193/37 157/169/37
f 72/194/26 69/170/26 146/171/26 148/195/26
f 70/172/27 73/196/27 149/197/27 147/173/27
f 57/198/38 54/174/38 136/175/38 138/199/38
f 118/180/39 33/94/39 123/97/39 179/181/39
f 55/178/40 58/200/40 139/201/40 137/179/40
f 42/202/41 39/182/41 126/183/41 128/203/41
f 105/204/42 102/184/42 168/185/42 170/205/42
f 32/206/43 117/176/43 178/177/43 122/207/43
f 40/186/44 43/208/44 129/209/44 127/187/44
f 103/188/45 106/210/45 171/211/45 169/189/45
f 188/212/46 87/190/46 158/191/46 189/213/46
f 182/214/47 91/215/47 161/216/47 184/217/47
f 75/218/48 72/194/48 148/195/48 150/219/48
f 73/196/49 76/220/49 151/221/49 149/197/49
f 60/103/50 57/222/50 138/223/50 140/104/50
f 58/224/51 61/106/51 141/109/51 139/225/51
f 45/111/52 42/202/52 128/203/52 130/112/52
f 108/226/27 105/204/27 170/205/27 172/227/27
f 43/208/53 46/118/53 131/121/53 129/209/53
f 106/210/26 109/228/26 173/229/26 171/211/26
f 30/153/54 32/206/54 122/207/54 121/154/54
f 93/127/55 90/230/55 160/231/55 162/128/55
f 91/215/56 94/130/56 163/133/56 161/216/56
f 78/135/57 75/218/57 150/232/57 152/136/57
f 187/233/27 193/234/27 203/235/27 201/236/27
f 90/230/58 181/237/58 183/238/58 160/231/58
f 186/239/1 185/240/1 180/61/1 182/65/1
f 185/240/1 188/241/1 181/62/1 180/61/1
f 89/59/1 87/58/1 188/241/1 185/240/1
f 88/60/1 89/59/1 185/240/1 186/239/1
f 88/192/59 186/242/59 187/243/59 159/193/59
f 183/244/27 181/245/27 195/246/27 197/247/27
f 192/248/60 190/249/60 191/250/60 193/251/60
f 182/252/27 184/253/27 191/254/27 190/255/27
f 187/256/26 186/257/26 192/258/26 193/259/26
f 186/239/1 182/65/1 190/260/1 192/261/1
f 195/262/61 194/263/61 196/264/61 197/265/61
f 188/266/26 189/267/26 196/268/26 194/269/26
f 184/270/27 187/233/27 201/236/27 200/271/27
f 181/62/1 188/241/1 194/272/1 195/273/1
f 205/274/61 204/275/61 212/276/61 213/277/61
f 204/278/26 198/279/26 206/280/26 212/281/26
f 183/282/27 197/283/27 205/284/27 199/285/27
f 193/234/27 191/286/27 202/287/27 203/235/27
f 197/283/27 196/288/27 204/289/27 205/284/27
f 189/290/27 183/282/27 199/285/27 198/291/27
f 191/286/27 184/270/27 200/271/27 202/287/27
f 196/288/27 189/290/27 198/291/27 204/289/27
f 206/292/1 207/293/1 208/294/1 209/295/1
f 211/296/60 210/297/60 218/298/60 219/299/60
f 201/300/26 203/301/26 211/302/26 209/303/26
f 200/304/62 201/305/62 209/306/62 208/307/62
f 199/308/27 205/309/27 213/310/27 207/311/27
f 202/312/27 200/313/27 208/314/27 210/315/27
f 203/316/60 202/317/60 210/297/60 211/296/60
f 198/318/63 199/319/63 207/320/63 206/321/63
f 216/322/64 217/323/64 219/324/64 218/325/64
f 214/326/64 215/327/64 221/328/64 220/329/64
f 212/281/26 206/280/26 214/330/26 220/331/26
f 213/277/61 212/276/61 220/332/61 221/333/61
f 209/303/26 211/302/26 219/334/26 217/335/26
f 207/311/27 213/310/27 221/336/27 215/337/27
f 210/315/27 208/314/27 216/338/27 218/339/27
f 215/327/64 214/326/64 217/323/64 216/322/64
f 214/330/26 206/280/26 209/303/26 217/335/26
f 207/311/27 215/337/27 216/338/27 208/314/27
