# Blender v2.79 (sub 0) OBJ File: 'coche.blend'
# www.blender.org
mtllib coche.mtl
o Cube.001
v -1.000000 -0.605936 -2.067842
v 1.000000 -0.605936 -2.067842
v 1.000000 -0.605937 -1.109537
v -1.000000 -0.605937 -1.109537
v -0.999999 0.338729 -2.067842
v -1.000000 0.610080 -1.190770
v 1.000000 0.610080 -1.190770
v 1.000001 0.338729 -2.067841
v -1.000000 1.212354 -1.280647
v 1.000000 1.212354 -1.280646
v -1.000000 -0.605937 0.871410
v -1.000000 0.120517 0.871410
v -1.000000 0.101856 -0.062247
v 0.999999 -0.605937 0.871410
v -0.000001 -0.605937 0.315318
v 0.999999 0.105809 -0.071025
v 0.999999 0.120517 0.871410
v -0.000001 -0.605937 0.871410
v -1.000000 -0.605938 1.722631
v -1.000000 0.120517 1.722631
v -0.000001 0.120517 0.871410
v -0.000001 0.120517 1.722631
v 0.999999 0.120517 1.722631
v -0.000001 -0.605938 1.722631
v 0.999999 -0.605938 1.722631
v -1.000000 0.704131 -0.152123
v 0.999999 0.708084 -0.160901
vt 0.320380 0.654593
vt 0.000000 0.654594
vt 0.000000 0.489100
vt 0.320380 0.489100
vt 0.620629 0.654594
vt 0.760151 0.654604
vt 0.760151 0.999993
vt 0.620630 0.999982
vt 0.469710 0.654594
vt 0.469710 0.999982
vt 0.902925 0.654593
vt 0.751599 0.654593
vt 0.708131 0.503128
vt 0.902925 0.489099
vt 0.973651 0.654594
vt 0.973651 0.999982
vt 0.876377 0.999982
vt 0.876377 0.654594
vt 0.460326 0.000000
vt 0.611652 0.000000
vt 0.611652 0.165494
vt 0.416858 0.151465
vt 0.611652 0.507592
vt 0.495282 0.507592
vt 0.498271 0.346355
vt 0.000000 0.147001
vt 0.160190 0.243035
vt 0.320380 0.147001
vt 0.788910 0.309754
vt 0.786554 0.147001
vt 0.902924 0.147001
vt 0.160190 0.147001
vt 0.611652 0.654593
vt 0.495282 0.654593
vt 0.136325 0.654594
vt 0.136326 0.827288
vt 0.000001 0.827288
vt 0.000000 0.654594
vt 0.760151 0.827288
vt 0.876377 0.827296
vt 0.876377 0.999990
vt 0.760151 0.999982
vt 0.760151 0.654594
vt 0.876377 0.654602
vt 0.000000 0.000000
vt 0.160190 0.000000
vt 0.136327 0.999982
vt 0.000002 0.999982
vt 0.786554 0.000000
vt 0.902925 0.000000
vt 0.320380 0.000000
vt 0.469710 0.654594
vt 0.469710 0.999982
vt 0.287207 1.000000
vt 0.288627 0.654611
vt 0.287207 0.654594
vt 0.285790 0.999982
vt 0.902925 0.345635
vt 0.902925 0.000244
vt 1.000000 0.000000
vt 1.000000 0.345391
vt 0.401792 0.330834
vt 0.320380 0.135944
vt 0.611652 0.518649
vt 0.692431 0.325276
vn 0.0000 -1.0000 -0.0000
vn 0.0000 0.9553 -0.2956
vn 0.0000 0.0000 -1.0000
vn 1.0000 -0.0000 0.0000
vn 0.0000 -0.1476 -0.9890
vn -1.0000 0.0000 -0.0000
vn 0.0000 1.0000 0.0000
vn 0.0000 -0.0000 1.0000
vn -0.0000 0.9118 0.4106
vn -0.0010 0.9998 -0.0178
vn 0.0040 0.1476 0.9890
usemtl MATERIAL
s 1
f 1/1/1 2/2/1 3/3/1 4/4/1
f 5/5/2 6/6/2 7/7/2 8/8/2
f 1/9/3 5/5/3 8/8/3 2/10/3
f 2/11/4 8/12/4 7/13/4 3/14/4
f 7/15/5 6/16/5 9/17/5 10/18/5
f 5/19/6 1/20/6 4/21/6 6/22/6
f 6/22/6 4/21/6 11/23/6 12/24/6 13/25/6
f 4/4/1 3/3/1 14/26/1 15/27/1 11/28/1
f 3/14/4 7/13/4 16/29/4 17/30/4 14/31/4
f 15/27/1 14/26/1 18/32/1
f 12/24/6 11/23/6 19/33/6 20/34/6
f 17/35/7 21/36/7 22/37/7 23/38/7
f 11/28/1 15/27/1 18/32/1
f 24/39/8 22/40/8 20/41/8 19/42/8
f 25/43/8 23/44/8 22/40/8 24/39/8
f 18/32/1 14/26/1 25/45/1 24/46/1
f 21/36/7 12/47/7 20/48/7 22/37/7
f 14/31/4 17/30/4 23/49/4 25/50/4
f 11/28/1 18/32/1 24/46/1 19/51/1
f 10/52/9 9/53/9 26/54/9 27/55/9
f 16/56/10 13/57/10 12/47/10 21/36/10 17/35/10
f 13/58/11 16/59/11 27/60/11 26/61/11
f 6/22/6 13/25/6 26/62/6 9/63/6
f 16/29/4 7/13/4 10/64/4 27/65/4
