# Blender v2.79 (sub 0) OBJ File: 'habilidadChino.blend'
# www.blender.org
mtllib habilidadChino.mtl
o Cube.001
v -2.309503 -0.697050 -3.707847
v 2.309505 -0.697050 -3.707847
v 2.309505 -0.697050 -1.494638
v -2.309503 -0.697050 -1.494638
v -2.309501 1.484658 -3.707847
v -2.309503 2.111699 -1.682248
v 2.309505 2.111665 -1.682248
v 2.309507 1.484658 -3.707845
v -2.309503 3.690329 -1.791344
v 2.309505 3.670166 -1.791342
v -2.309506 -0.697051 3.080367
v -2.309506 0.980697 3.080368
v -2.309503 1.814467 2.423491
v 2.309502 -0.697051 3.080367
v -0.000002 -0.697051 1.796071
v 2.309502 1.823596 2.403221
v 2.309502 0.980697 3.080368
v -0.000002 -0.697051 3.080367
v -1.288756 -0.697054 5.046265
v -1.577472 0.980697 5.046266
v -0.000002 0.980697 3.080368
v -0.000002 0.980697 5.046266
v 1.734416 0.980697 5.046266
v -0.000002 -0.697054 5.046265
v 1.315617 -0.697054 5.046265
v -2.309503 2.328557 0.716512
v 2.309502 2.337686 0.696239
v -2.309503 3.455202 -1.939005
v 2.309505 3.411927 -1.953567
v 1.732531 3.670166 -1.791342
v 1.771317 3.414576 -1.951870
v -1.778789 3.690329 -1.791343
v -1.802258 3.452522 -1.940604
v 1.732531 4.758023 -3.028151
v 2.309505 4.758023 -3.028151
v -2.309503 4.564835 -3.175814
v -2.309503 4.808657 -3.028152
v 2.309505 4.490412 -3.190376
v -1.802258 4.561915 -3.177413
v 1.771317 4.493094 -3.188679
v -1.778788 4.808657 -3.028152
v 1.732532 4.953308 -3.667778
v 2.309505 4.953308 -3.667778
v -2.309503 4.760118 -3.815441
v -2.309503 5.003941 -3.667780
v 2.309505 4.685696 -3.830003
v -1.802258 4.757200 -3.817040
v 1.771318 4.688378 -3.828306
v -1.778788 5.003941 -3.667779
v 2.560821 5.049243 -6.670534
v 3.137795 5.049243 -6.670534
v -2.967422 4.821493 -6.818197
v -2.967422 5.049245 -6.670536
v 3.137795 4.799031 -6.832758
v -2.460176 4.819026 -6.819796
v 2.599607 4.801648 -6.831062
v -2.436707 5.049245 -6.670535
v -2.309500 1.484662 -9.971651
v 2.309508 1.484662 -9.971649
v -2.309502 -0.697046 -9.971651
v 2.309506 -0.697046 -9.971651
v 0.000004 1.484662 -9.971650
v -2.309501 0.393808 -9.971651
v 0.000002 -0.697046 -9.971651
v 2.309507 0.393808 -9.971650
v 0.000003 0.393808 -9.971651
v 1.154756 1.484662 -9.971649
v -2.309501 0.939235 -9.971651
v 1.154754 -0.697046 -9.971651
v 2.309507 0.939235 -9.971649
v -1.154748 1.484662 -9.971651
v -2.309502 -0.151619 -9.971651
v -1.154750 -0.697046 -9.971651
v 2.309506 -0.151619 -9.971651
v 1.154755 0.393808 -9.971651
v -1.154749 0.393808 -9.971651
v 0.000002 -0.151619 -9.971651
v 0.000003 0.939235 -9.971651
v -1.154749 0.939235 -9.971651
v -1.154750 -0.151619 -9.971651
v 1.154754 -0.151619 -9.971651
v 1.154755 0.939235 -9.971650
v -2.812392 0.939235 -12.423132
v -2.812392 1.484662 -12.423132
v -1.657640 1.484662 -12.423132
v -1.657640 0.939235 -12.423132
v 2.069734 1.484664 -12.539841
v 3.224486 1.484664 -12.539841
v 3.224485 0.939237 -12.539841
v 2.069733 0.939237 -12.539842
v -2.435014 -0.697046 -13.213095
v -2.435013 -0.151619 -13.213095
v -1.280262 -0.697046 -13.213095
v -1.280261 -0.151619 -13.213095
v 1.723261 -0.697046 -13.394279
v 2.878013 -0.697046 -13.394279
v 2.878014 -0.151619 -13.394279
v 1.723262 -0.151619 -13.394279
v 0.832372 0.393808 -13.370654
v 1.987124 0.393808 -13.370654
v 0.832372 -0.151619 -13.370654
v 1.987124 -0.151619 -13.370654
v -1.489266 0.393808 -13.494179
v -0.334514 0.393808 -13.494179
v -0.334514 -0.151619 -13.494179
v -1.489266 -0.151619 -13.494179
v -2.632790 3.455202 -1.939005
v -2.632790 3.690329 -1.791344
v -2.632790 1.814467 2.423491
v -2.632790 2.328557 0.716512
v -2.632790 2.111699 -1.682248
v 2.653610 2.111665 -1.682247
v 2.653607 1.823596 2.403221
v 2.653610 3.411928 -1.953566
v 2.653610 3.670166 -1.791342
v 2.653607 2.337687 0.696239
v 1.732803 4.011663 -1.649544
v 2.309777 4.011663 -1.649544
v -2.309231 2.155963 2.565289
v 2.309775 2.165093 2.545019
v 2.309775 2.679183 0.838037
v -2.309231 2.670053 0.858309
v -2.309231 4.031826 -1.649546
v -1.778516 4.031826 -1.649546
vn 0.0000 -1.0000 -0.0000
vn 0.0000 0.9553 -0.2957
vn -0.7071 -0.7071 -0.0000
vn -0.7071 0.7071 0.0000
vn -1.0000 0.0000 -0.0000
vn 1.0000 -0.0000 0.0000
vn 0.7417 -0.5053 -0.4411
vn -0.0025 -0.1959 -0.9806
vn -0.4289 -0.4481 -0.7844
vn 0.2408 -0.1868 -0.9524
vn -0.2467 -0.2043 -0.9473
vn 0.4260 -0.4534 -0.7830
vn -0.7434 -0.4997 -0.4446
vn -0.9774 -0.0401 0.2077
vn -0.9865 -0.0311 0.1611
vn -0.9890 -0.0268 0.1454
vn 0.9889 -0.0268 0.1461
vn 0.9882 -0.0457 0.1460
vn 0.9805 -0.0587 0.1877
vn -0.9105 -0.0783 0.4059
vn 0.0000 1.0000 0.0000
vn 0.0000 -0.0000 1.0000
vn 0.9226 -0.1151 0.3682
vn -0.7296 0.2628 -0.6314
vn -1.0000 0.0007 0.0004
vn -0.6824 0.2808 -0.6749
vn 0.0011 0.6226 0.7825
vn -0.7275 -0.2626 0.6339
vn 0.7301 -0.2625 0.6309
vn 0.6853 -0.2797 0.6724
vn -0.6812 -0.2803 0.6763
vn 0.0000 0.9230 0.3848
vn 0.0000 0.9673 -0.2535
vn 0.0000 0.1767 -0.9843
vn 0.5933 -0.6064 -0.5294
vn 0.7554 -0.5730 -0.3180
vn -0.7104 -0.6155 -0.3413
vn -0.7305 -0.6381 -0.2433
vn 0.6643 -0.7475 -0.0002
vn -0.7611 -0.5649 -0.3188
vn 0.7253 -0.5996 -0.3382
vn -0.6506 0.7299 -0.2094
vn 0.6602 0.7323 -0.1669
vn -0.6441 0.7316 0.2234
vn 0.6876 0.6317 0.3579
vn 0.7153 0.6967 0.0541
vn -0.7569 0.6251 0.1908
vn -0.7027 0.6215 0.3463
vn -0.7433 0.4962 0.4487
vn -0.6601 0.5572 0.5038
vn 0.7406 0.5045 0.4438
vn 0.6639 0.5616 0.4939
vn -0.5228 0.8429 0.1271
vn 0.5513 0.7071 -0.4428
vn -0.8681 0.4558 0.1968
vn -0.6862 -0.7273 -0.0115
vn -0.6121 -0.3870 -0.6896
vn 0.6440 0.7317 0.2234
vn 0.7569 0.6250 0.1908
vn -0.7330 0.6790 0.0405
vn 0.7403 -0.6376 -0.2131
vn 0.6227 -0.3845 -0.6815
vn -0.4467 -0.4017 -0.7994
vn -0.5434 0.7061 -0.4540
vn 0.0000 0.5440 -0.8391
vn 0.4689 -0.4065 -0.7841
vn 0.5174 0.8388 0.1693
vn 0.8710 0.4211 0.2533
vn -0.5199 0.4317 -0.7371
vn 0.5978 0.7729 0.2130
vn 0.7420 0.6161 0.2644
vn -0.4622 0.5975 -0.6553
vn 0.7071 0.7071 0.0000
vn 0.7071 -0.7071 -0.0000
vn -0.0078 -0.1326 -0.9911
vn 0.3087 0.3664 -0.8778
vn 0.0000 0.0000 -1.0000
vn 0.5800 0.6496 -0.4916
vn -0.3064 0.3263 -0.8942
vn 0.0082 0.6081 -0.7938
vn 0.5469 0.5825 -0.6013
vn -0.6065 0.5725 -0.5517
vn 0.2832 -0.2519 -0.9254
vn 0.5510 0.4900 -0.6755
vn -0.5780 -0.6660 -0.4715
vn -0.6496 0.7485 0.1333
vn 0.5109 0.5887 -0.6264
vn -0.7386 0.6569 0.1515
vn 0.5742 -0.5604 -0.5968
vn 0.0019 -0.0436 -0.9990
vn 0.0082 -0.6081 -0.7938
vn -0.6979 -0.7157 0.0270
vn -0.7153 -0.6982 0.0277
vn 0.5651 -0.5794 -0.5874
vn -0.5796 0.5943 -0.5576
vn 0.6620 -0.7414 0.1100
vn -0.5577 -0.5061 -0.6579
vn -0.5237 -0.5865 -0.6179
vn 0.7350 -0.6670 0.1221
vn 0.6487 0.5658 -0.5090
vn -0.4979 0.5910 -0.6346
vn -0.2651 -0.2201 -0.9388
vn 0.5617 -0.7263 -0.3962
vn -0.6381 -0.5674 -0.5205
vn 0.5109 -0.5887 -0.6264
vn -0.4622 -0.5975 -0.6553
vn 0.6762 -0.5615 -0.4769
vn -0.5894 0.5753 -0.5671
vn 0.5651 0.5794 -0.5874
vn -0.5237 0.5865 -0.6179
vn 0.6272 0.5692 -0.5316
vn -0.4979 -0.5910 -0.6346
vn 0.6487 -0.5658 -0.5090
vn -0.6065 -0.5725 -0.5517
vn 0.5469 -0.5825 -0.6013
vn -0.5923 -0.6019 -0.5356
vn -0.5378 -0.1529 0.8291
vn 0.0000 0.1849 -0.9828
vn 0.5378 -0.1521 0.8292
vn -0.0000 0.9666 -0.2562
vn -0.0000 0.9241 0.3822
vn 0.0021 0.8802 0.4747
vn -0.0006 0.9575 0.2884
vn 0.0011 0.3835 -0.9235
vn 0.7280 0.2624 -0.6334
vn 0.6841 0.2792 -0.6738
vn -1.0000 0.0007 0.0002
vn 1.0000 -0.0007 -0.0003
vn 1.0000 -0.0007 -0.0002
usemtl Material.002
s 1
f 1//1 2//1 3//1 4//1
f 5//2 6//2 7//2 8//2
f 1//3 5//4 58//4 68//5 63//5 72//5 60//3
f 2//6 8//6 7//7 3//6
f 7//8 6//8 28//9 33//10 31//11 29//12
f 5//5 1//5 4//5 6//13
f 6//13 4//5 11//14 12//15 13//16
f 4//1 3//1 14//1 15//1 11//1
f 3//6 7//7 16//17 17//18 14//19
f 15//1 14//1 18//1
f 12//15 11//14 19//20 20//20
f 17//21 21//21 22//21 23//21
f 11//1 15//1 18//1
f 24//22 22//22 20//22 19//22
f 25//22 23//22 22//22 24//22
f 18//1 14//1 25//1 24//1
f 21//21 12//21 20//21 22//21
f 14//19 17//18 23//23 25//23
f 11//1 18//1 24//1 19//1
f 9//24 26//25 122//25 123//26
f 16//27 13//27 12//27 21//27 17//27
f 13//28 16//29 120//30 119//31
f 26//32 9//33 108//33 110//32
f 7//7 29//34 114//34 112//35
f 38//36 40//37 48//38 46//39
f 33//10 28//9 36//40 39//41
f 30//42 31//11 33//10 32//43
f 29//12 31//11 40//37 38//36
f 37//44 41//45 49//46 45//47
f 31//11 30//42 34//48 40//37
f 28//9 9//49 37//50 36//40
f 10//51 29//12 38//36 35//52
f 32//43 33//10 39//41 41//45
f 9//49 32//43 41//45 37//50
f 30//42 10//51 35//52 34//48
f 45//53 49//46 57//54 53//55
f 44//56 45//53 53//55 52//57
f 35//58 38//36 46//39 43//59
f 34//48 35//58 43//59 42//60
f 41//45 39//41 47//61 49//46
f 40//37 34//48 42//60 48//38
f 39//41 36//40 44//56 47//61
f 36//40 37//44 45//47 44//56
f 54//62 56//63 50//64 51//65
f 57//54 55//66 52//57 53//65
f 46//39 48//38 56//63 54//62
f 43//67 46//39 54//62 51//68
f 42//60 43//67 51//68 50//64
f 49//46 47//61 55//66 57//54
f 48//38 42//60 50//64 56//63
f 47//61 44//56 52//57 55//66
f 67//69 59//70 88//71 87//72
f 5//4 8//73 59//73 67//21 62//21 71//21 58//4
f 2//74 1//3 60//3 73//1 64//1 69//1 61//74
f 8//73 2//74 61//74 74//6 65//6 70//6 59//73
f 81//75 75//76 65//77 74//78
f 76//79 66//80 104//81 103//82
f 79//83 71//84 62//77 78//77
f 76//79 79//83 78//77 66//80
f 63//77 68//85 79//83 76//79
f 58//86 71//84 85//87 84//88
f 73//89 80//90 77//91 64//77
f 73//89 60//92 91//93 93//94
f 72//95 63//77 76//79 80//90
f 61//96 69//97 95//98 96//99
f 64//77 77//91 81//75 69//97
f 66//80 75//76 100//100 99//101
f 75//76 82//102 70//103 65//77
f 66//80 78//77 82//102 75//76
f 78//77 62//77 67//69 82//102
f 83//104 84//77 85//87 86//105
f 71//84 79//83 86//105 85//87
f 79//83 68//85 83//104 86//105
f 68//85 58//86 84//88 83//104
f 90//106 87//72 88//77 89//107
f 70//103 82//102 90//106 89//107
f 59//70 70//103 89//107 88//71
f 82//102 67//69 87//72 90//106
f 91//77 92//108 94//109 93//94
f 72//95 80//90 94//109 92//108
f 80//90 73//89 93//94 94//109
f 60//92 72//95 92//108 91//93
f 95//98 98//110 97//111 96//77
f 69//97 81//75 98//110 95//98
f 81//75 74//78 97//111 98//110
f 74//78 61//96 96//99 97//111
f 101//112 99//101 100//100 102//113
f 75//76 81//75 102//113 100//100
f 77//91 66//80 99//101 101//112
f 81//75 77//91 101//112 102//113
f 106//114 103//82 104//81 105//115
f 80//90 76//79 103//82 106//114
f 77//91 80//90 106//114 105//115
f 66//80 77//91 105//115 104//81
f 111//116 109//117 110//5 108//5 107//5
f 13//16 26//32 110//32 109//117
f 28//118 6//13 111//116 107//118
f 6//13 13//16 109//117 111//116
f 9//33 28//118 107//118 108//33
f 113//119 112//35 114//6 115//6 116//6
f 16//17 7//7 112//35 113//119
f 29//34 10//120 115//120 114//34
f 10//120 27//121 116//121 115//120
f 27//121 16//17 113//119 116//121
f 118//122 117//122 124//122 123//122 122//122 121//122
f 119//123 120//123 121//123 122//123
f 32//124 9//24 123//26 124//124
f 10//125 30//124 117//124 118//126
f 26//127 13//28 119//31 122//127
f 27//128 10//125 118//126 121//128
f 16//29 27//129 121//129 120//30
f 30//124 32//124 124//124 117//124
